<?xml version="1.0" encoding="UTF-8" standalone="no"?>
<svg
   xmlns:dc="http://purl.org/dc/elements/1.1/"
   xmlns:cc="http://creativecommons.org/ns#"
   xmlns:rdf="http://www.w3.org/1999/02/22-rdf-syntax-ns#"
   xmlns:svg="http://www.w3.org/2000/svg"
   xmlns="http://www.w3.org/2000/svg"
   xmlns:sodipodi="http://sodipodi.sourceforge.net/DTD/sodipodi-0.dtd"
   xmlns:inkscape="http://www.inkscape.org/namespaces/inkscape"
   width="87.999763"
   height="30.799917"
   viewBox="0 0 120 41.999999"
   version="1.1"
   id="svg3715"
   sodipodi:docname="cc-by-nd_icon.svg"
   inkscape:version="0.92pre2 r">
  <metadata
     id="metadata3721">
    <rdf:RDF>
      <cc:Work
         rdf:about="">
        <dc:format>image/svg+xml</dc:format>
        <dc:type
           rdf:resource="http://purl.org/dc/dcmitype/StillImage" />
        <dc:title></dc:title>
      </cc:Work>
    </rdf:RDF>
  </metadata>
  <defs
     id="defs3719" />
  <sodipodi:namedview
     pagecolor="#ffffff"
     bordercolor="#666666"
     borderopacity="1"
     objecttolerance="10"
     gridtolerance="10"
     guidetolerance="10"
     inkscape:pageopacity="0"
     inkscape:pageshadow="2"
     inkscape:window-width="640"
     inkscape:window-height="480"
     id="namedview3717"
     showgrid="false"
     inkscape:zoom="1.8149074"
     inkscape:cx="64.19593"
     inkscape:cy="4.6195586"
     inkscape:window-x="638"
     inkscape:window-y="0"
     inkscape:window-maximized="0"
     inkscape:current-layer="svg3715"
     scale-x="1.36364"
     fit-margin-top="0"
     fit-margin-left="0"
     fit-margin-right="0"
     fit-margin-bottom="0" />
  <g
     id="surface1">
    <path
       style="fill:#a8b0ab;fill-opacity:1;fill-rule:nonzero;stroke:none"
       d="m 3.40625,0.4375 113.35547,0.199219 c 1.58594,0 3,-0.234375 3,3.164062 l -0.14063,37.328125 H 0.546875 V 3.660156 C 0.546875,1.988281 0.710938,0.4375 3.40625,0.4375 Z"
       id="path3684"
       inkscape:connector-curvature="0" />
    <path
       style="fill:#ffffff;fill-opacity:1;fill-rule:nonzero;stroke:none"
       d="m 34.523438,19.535156 c 0.0039,7.53125 -6.097657,13.636719 -13.628907,13.640625 -7.527343,0.0078 -13.636718,-6.09375 -13.640625,-13.625 0,-0.0039 0,-0.0078 0,-0.01563 -0.00391,-7.53125 6.09375,-13.636718 13.625,-13.640625 7.53125,-0.00391 13.640625,6.09375 13.644532,13.625 0,0.0039 0,0.01172 0,0.01563 z"
       id="path3686"
       inkscape:connector-curvature="0" />
    <path
       style="fill:#000000;fill-opacity:1;fill-rule:nonzero;stroke:none"
       d="m 31.972656,8.429688 c 3.023438,3.023437 4.535157,6.726562 4.535157,11.105468 0,4.378907 -1.488282,8.042969 -4.457032,10.988282 -3.15625,3.101562 -6.882812,4.652343 -11.183593,4.652343 -4.25,0 -7.910157,-1.535156 -10.984375,-4.613281 -3.078125,-3.074219 -4.617188,-6.75 -4.617188,-11.027344 0,-4.273437 1.539063,-7.976562 4.617188,-11.105468 2.996093,-3.023438 6.65625,-4.535157 10.984375,-4.535157 4.378906,0 8.082031,1.511719 11.105468,4.535157 z m -20.054687,2.035156 c -2.558594,2.582031 -3.835938,5.605469 -3.835938,9.074219 0,3.46875 1.265625,6.46875 3.796875,8.996093 2.527344,2.53125 5.539063,3.796875 9.035157,3.796875 3.496093,0 6.53125,-1.277343 9.113281,-3.835937 2.453125,-2.371094 3.679687,-5.355469 3.679687,-8.957031 0,-3.570313 -1.246093,-6.601563 -3.738281,-9.09375 -2.488281,-2.488282 -5.507812,-3.734375 -9.054687,-3.734375 -3.546875,0 -6.546875,1.25 -8.996094,3.753906 z m 6.726562,7.550781 c -0.390625,-0.851562 -0.976562,-1.277344 -1.757812,-1.277344 -1.375,0 -2.066406,0.925782 -2.066406,2.78125 0,1.855469 0.691406,2.785157 2.066406,2.785157 0.910156,0 1.5625,-0.453125 1.953125,-1.359375 L 20.75,21.964844 c -0.910156,1.617187 -2.277344,2.425781 -4.097656,2.425781 -1.40625,0 -2.53125,-0.429687 -3.378906,-1.292969 -0.847657,-0.859375 -1.269532,-2.046875 -1.269532,-3.5625 0,-1.488281 0.4375,-2.667968 1.308594,-3.542968 0.871094,-0.875 1.957031,-1.3125 3.261719,-1.3125 1.925781,0 3.304687,0.757812 4.136719,2.277343 z m 8.988282,0 c -0.390625,-0.851562 -0.964844,-1.277344 -1.71875,-1.277344 -1.40625,0 -2.109375,0.925782 -2.109375,2.78125 0,1.855469 0.703125,2.785157 2.109375,2.785157 0.910156,0 1.550781,-0.453125 1.914062,-1.359375 l 1.953125,1.019531 c -0.910156,1.617187 -2.273437,2.425781 -4.089844,2.425781 -1.40625,0 -2.527343,-0.429687 -3.375,-1.292969 -0.839843,-0.859375 -1.265625,-2.046875 -1.265625,-3.5625 0,-1.488281 0.429688,-2.667968 1.289063,-3.542968 0.855469,-0.875 1.945312,-1.3125 3.273437,-1.3125 1.921875,0 3.296875,0.757812 4.128907,2.277343 z"
       id="path3688"
       inkscape:connector-curvature="0" />
    <path
       style="fill:#ffffff;fill-opacity:1;fill-rule:nonzero;stroke:none"
       d="m 74.097656,15.175781 c 0,5.933594 -4.808593,10.738282 -10.738281,10.738282 -5.929687,0 -10.738281,-4.804688 -10.738281,-10.738282 0,-5.929687 4.808594,-10.734375 10.738281,-10.734375 5.929688,0 10.738281,4.804688 10.738281,10.734375 z"
       id="path3690"
       inkscape:connector-curvature="0" />
    <path
       style="fill:#000000;fill-opacity:1;fill-rule:nonzero;stroke:none"
       d="m 66.46875,12.070313 c 0,-0.414063 -0.335937,-0.75 -0.75,-0.75 h -4.742187 c -0.414063,0 -0.75,0.335937 -0.75,0.75 V 16.8125 h 1.324218 v 5.617188 h 3.59375 V 16.8125 h 1.324219 z"
       id="path3692"
       inkscape:connector-curvature="0" />
    <path
       style="fill:#000000;fill-opacity:1;fill-rule:nonzero;stroke:none"
       d="m 64.96875,9.074219 c 0,0.898437 -0.726562,1.621094 -1.621094,1.621094 -0.894531,0 -1.621093,-0.722657 -1.621093,-1.621094 0,-0.894531 0.726562,-1.621094 1.621093,-1.621094 0.894532,0 1.621094,0.726563 1.621094,1.621094 z"
       id="path3694"
       inkscape:connector-curvature="0" />
    <path
       style="fill:#000000;fill-opacity:1;fill-rule:evenodd;stroke:none"
       d="m 63.332031,3.347656 c -3.210937,0 -5.929687,1.117188 -8.15625,3.363282 -2.285156,2.316406 -3.425781,5.0625 -3.425781,8.230468 0,3.167969 1.140625,5.894532 3.425781,8.175782 2.285157,2.277343 5.003907,3.417968 8.15625,3.417968 3.191407,0 5.960938,-1.148437 8.300782,-3.449218 2.207031,-2.183594 3.308593,-4.898438 3.308593,-8.144532 0,-3.246093 -1.121093,-5.992187 -3.363281,-8.230468 C 69.332031,4.464844 66.582031,3.347656 63.332031,3.347656 Z m 0.02734,2.085938 c 2.632813,0 4.867188,0.925781 6.707031,2.78125 1.859375,1.835937 2.789063,4.078125 2.789063,6.726562 0,2.667969 -0.910156,4.878907 -2.730469,6.636719 -1.917969,1.894531 -4.171875,2.839844 -6.765625,2.839844 -2.589844,0 -4.828125,-0.9375 -6.703125,-2.808594 -1.878906,-1.875 -2.816406,-4.097656 -2.816406,-6.667969 0,-2.570312 0.949219,-4.8125 2.84375,-6.726562 1.820312,-1.855469 4.046875,-2.78125 6.675781,-2.78125 z"
       id="path3696"
       inkscape:connector-curvature="0" />
    <path
       style="fill:#000000;fill-opacity:1;fill-rule:nonzero;stroke:none"
       d="M 117.75391,0 H 2.246094 C 1.007813,0 0,1.007813 0,2.246094 V 41.492188 C 0,41.773438 0.226563,42 0.507813,42 H 119.49219 C 119.77344,42 120,41.773438 120,41.492188 V 2.246094 C 120,1.007813 118.99219,0 117.75391,0 Z M 2.246094,1.015625 H 117.75391 c 0.67968,0 1.23047,0.550781 1.23047,1.230469 0,0 0,15.78125 0,27.207031 H 36.429688 c -3.027344,5.46875 -8.859375,9.183594 -15.546875,9.183594 -6.695313,0 -12.523438,-3.710938 -15.546875,-9.183594 H 1.015625 c 0,-11.425781 0,-27.207031 0,-27.207031 0,-0.679688 0.550781,-1.230469 1.230469,-1.230469 z"
       id="path3698"
       inkscape:connector-curvature="0" />
    <path
       style="fill:#ffffff;fill-opacity:1;fill-rule:nonzero;stroke:none"
       d="m 59.996094,32.746094 c 0.316406,0 0.605469,0.03125 0.863281,0.08594 0.261719,0.05469 0.484375,0.144532 0.671875,0.273438 0.183594,0.125 0.328125,0.292969 0.429688,0.503906 0.101562,0.210938 0.152343,0.46875 0.152343,0.777344 0,0.335937 -0.07422,0.613281 -0.226562,0.835937 -0.152344,0.222657 -0.375,0.40625 -0.671875,0.546875 0.410156,0.117188 0.714844,0.324219 0.914062,0.617188 0.203125,0.292969 0.304688,0.648437 0.304688,1.0625 0,0.332031 -0.06641,0.621094 -0.195313,0.867187 -0.128906,0.246094 -0.304687,0.445313 -0.523437,0.597657 -0.222656,0.15625 -0.472656,0.269531 -0.753906,0.34375 -0.28125,0.07422 -0.574219,0.113281 -0.871094,0.113281 H 56.875 v -6.625 z M 59.8125,35.425781 c 0.257813,0 0.472656,-0.0625 0.640625,-0.183593 0.164063,-0.125 0.25,-0.324219 0.25,-0.601563 0,-0.15625 -0.02734,-0.28125 -0.08594,-0.378906 -0.05469,-0.101563 -0.128907,-0.175781 -0.222657,-0.230469 -0.08984,-0.05859 -0.199218,-0.09766 -0.320312,-0.117187 -0.121094,-0.02344 -0.246094,-0.03516 -0.375,-0.03516 h -1.363281 v 1.546875 z m 0.08203,2.808594 c 0.144532,0 0.28125,-0.01172 0.410157,-0.03906 0.128906,-0.02734 0.246093,-0.07422 0.34375,-0.140625 0.09766,-0.0625 0.179687,-0.152344 0.238281,-0.261719 0.05859,-0.113281 0.08594,-0.253906 0.08594,-0.429688 0,-0.339843 -0.09375,-0.582031 -0.285156,-0.726562 -0.195312,-0.144531 -0.449219,-0.21875 -0.765625,-0.21875 H 58.33594 v 1.816406 z"
       id="path3700"
       inkscape:connector-curvature="0" />
    <path
       style="fill:#ffffff;fill-opacity:1;fill-rule:nonzero;stroke:none"
       d="m 62.691406,32.746094 h 1.632813 l 1.550781,2.617187 1.539063,-2.617187 h 1.625 l -2.457032,4.082031 v 2.542969 h -1.460937 v -2.582031 z"
       id="path3702"
       inkscape:connector-curvature="0" />
    <path
       style="fill:#ffffff;fill-opacity:1;fill-rule:nonzero;stroke:none"
       d="m 85.933594,32.746094 2.765625,4.445312 h 0.01563 v -4.445312 h 1.367187 v 6.625 H 88.625 L 85.867188,34.9375 h -0.01563 v 4.433594 H 84.48437 v -6.625 z"
       id="path3704"
       inkscape:connector-curvature="0" />
    <path
       style="fill:#ffffff;fill-opacity:1;fill-rule:nonzero;stroke:none"
       d="m 94.21875,32.746094 c 0.425781,0 0.824219,0.07031 1.191406,0.207031 0.371094,0.136719 0.6875,0.339844 0.957032,0.609375 0.269531,0.273438 0.480468,0.613281 0.632812,1.019531 0.152344,0.410157 0.226563,0.890625 0.226563,1.441407 0,0.480468 -0.0625,0.925781 -0.183594,1.332031 -0.125,0.410156 -0.3125,0.761719 -0.5625,1.058594 -0.25,0.296875 -0.5625,0.53125 -0.9375,0.699218 -0.375,0.171875 -0.816406,0.257813 -1.324219,0.257813 h -2.859375 v -6.625 z m -0.101562,5.398437 c 0.210937,0 0.414062,-0.03516 0.609375,-0.105468 0.199218,-0.06641 0.375,-0.179688 0.53125,-0.335938 0.152343,-0.15625 0.277343,-0.363281 0.371093,-0.617187 0.09375,-0.253907 0.140625,-0.5625 0.140625,-0.925782 0,-0.332031 -0.03516,-0.632812 -0.09766,-0.902343 -0.06641,-0.269532 -0.171875,-0.5 -0.320312,-0.691407 C 95.203125,34.375 95.007813,34.230469 94.761719,34.125 94.515625,34.02734 94.214844,33.972656 93.855469,33.972656 h -1.039063 v 4.171875 z"
       id="path3706"
       inkscape:connector-curvature="0" />
    <path
       style="fill:#ffffff;fill-opacity:1;fill-rule:nonzero;stroke:none"
       d="m 102.49609,14.980469 c 0.004,5.84375 -4.734371,10.585937 -10.582027,10.59375 -5.84375,0 -10.585938,-4.730469 -10.589844,-10.578125 0,-0.0039 0,-0.01172 0,-0.01563 -0.0039,-5.84375 4.730469,-10.585938 10.578125,-10.589844 5.84375,-0.00781 10.585936,4.730469 10.593746,10.574219 0,0.0039 0,0.01172 0,0.01563 z"
       id="path3708"
       inkscape:connector-curvature="0" />
    <path
       style="fill:#000000;fill-opacity:1;fill-rule:nonzero;stroke:none"
       d="m 91.742188,3.386719 c -3.210938,0 -5.929688,1.117187 -8.15625,3.359375 -2.285157,2.320312 -3.425782,5.0625 -3.425782,8.234375 0,3.167969 1.140625,5.894531 3.425782,8.175781 2.285156,2.28125 5.003906,3.417969 8.15625,3.417969 3.191406,0 5.960937,-1.148438 8.300782,-3.449219 2.20703,-2.183594 3.3125,-4.898437 3.3125,-8.144531 0,-3.246094 -1.125,-5.992188 -3.367189,-8.234375 C 97.742188,4.503906 94.992188,3.386719 91.742188,3.386719 Z m 0.03125,2.085937 c 2.628906,0 4.863281,0.925782 6.703125,2.785157 1.859377,1.832031 2.789067,4.074218 2.789067,6.722656 0,2.667969 -0.91016,4.878906 -2.730474,6.636719 -1.917968,1.894531 -4.171875,2.839843 -6.761718,2.839843 -2.59375,0 -4.832032,-0.933593 -6.707032,-2.8125 C 83.1875,19.773438 82.25,17.550781 82.25,14.980469 c 0,-2.570313 0.949219,-4.8125 2.84375,-6.722656 1.820313,-1.859375 4.046875,-2.785157 6.679688,-2.785157 z"
       id="path3710"
       inkscape:connector-curvature="0" />
    <path
       style="fill:#000000;fill-opacity:1;fill-rule:nonzero;stroke:none"
       d="m 96.140625,12.234375 h -8.433594 v 1.996094 h 8.433594 z m 0,3.722656 h -8.433594 v 1.996094 h 8.433594 z"
       id="path3712"
       inkscape:connector-curvature="0" />
  </g>
</svg>
