<?xml version="1.0" encoding="UTF-8" standalone="no"?>
<!DOCTYPE svg PUBLIC "-//W3C//DTD SVG 1.1//EN"
 "http://www.w3.org/Graphics/SVG/1.1/DTD/svg11.dtd">
<!-- Generated by graphviz version 2.42.4 (0)
 -->
<!-- Title: build Pages: 1 -->
<svg width="1114pt" height="621pt"
 viewBox="0.00 0.00 1114.00 621.00" xmlns="http://www.w3.org/2000/svg" xmlns:xlink="http://www.w3.org/1999/xlink">
<g id="graph0" class="graph" transform="scale(1 1) rotate(0) translate(4 617)">
<title>build</title>
<polygon fill="white" stroke="transparent" points="-4,4 -4,-617 1110,-617 1110,4 -4,4"/>
<!-- functions_c -->
<g id="node1" class="node">
<title>functions_c</title>
<path fill="none" stroke="red" stroke-width="2" d="M31.83,-454C31.83,-454 129.17,-454 129.17,-454 133.83,-454 138.5,-458.67 138.5,-463.33 138.5,-463.33 138.5,-472.67 138.5,-472.67 138.5,-477.33 133.83,-482 129.17,-482 129.17,-482 31.83,-482 31.83,-482 27.17,-482 22.5,-477.33 22.5,-472.67 22.5,-472.67 22.5,-463.33 22.5,-463.33 22.5,-458.67 27.17,-454 31.83,-454"/>
<text text-anchor="middle" x="80.5" y="-463.6" font-family="Times,serif" font-size="18.00">functions.c</text>
</g>
<!-- gen_map_doc -->
<g id="node19" class="node">
<title>gen_map_doc</title>
<polygon fill="none" stroke="green" stroke-width="2" points="377.5,-417 245.5,-417 245.5,-389 377.5,-389 377.5,-417"/>
<text text-anchor="middle" x="311.5" y="-398.6" font-family="Times,serif" font-size="18.00">gen&#45;map&#45;doc</text>
</g>
<!-- functions_c&#45;&gt;gen_map_doc -->
<g id="edge21" class="edge">
<title>functions_c&#45;&gt;gen_map_doc</title>
<path fill="none" stroke="#000000" stroke-width="1.5" d="M130.91,-453.98C166.15,-443.97 213.72,-430.47 251.04,-419.88"/>
<polygon fill="#000000" stroke="#000000" stroke-width="1.5" points="252.12,-423.21 260.79,-417.11 250.21,-416.47 252.12,-423.21"/>
<text text-anchor="middle" x="185" y="-445.8" font-family="Times,serif" font-size="14.00">cpp</text>
</g>
<!-- opcodes -->
<g id="node2" class="node">
<title>opcodes</title>
<path fill="none" stroke="red" stroke-width="2" d="M36.33,-389C36.33,-389 124.67,-389 124.67,-389 129.33,-389 134,-393.67 134,-398.33 134,-398.33 134,-407.67 134,-407.67 134,-412.33 129.33,-417 124.67,-417 124.67,-417 36.33,-417 36.33,-417 31.67,-417 27,-412.33 27,-407.67 27,-407.67 27,-398.33 27,-398.33 27,-393.67 31.67,-389 36.33,-389"/>
<text text-anchor="middle" x="80.5" y="-398.6" font-family="Times,serif" font-size="18.00">opcodes.h</text>
</g>
<!-- opcodes&#45;&gt;gen_map_doc -->
<g id="edge17" class="edge">
<title>opcodes&#45;&gt;gen_map_doc</title>
<path fill="none" stroke="#000000" stroke-width="1.5" d="M134.04,-403C163.95,-403 201.95,-403 235.01,-403"/>
<polygon fill="#000000" stroke="#000000" stroke-width="1.5" points="235.1,-406.5 245.1,-403 235.1,-399.5 235.1,-406.5"/>
</g>
<!-- mutt_config_c -->
<g id="node3" class="node">
<title>mutt_config_c</title>
<path fill="none" stroke="red" stroke-width="2" d="M19.83,-195C19.83,-195 141.17,-195 141.17,-195 145.83,-195 150.5,-199.67 150.5,-204.33 150.5,-204.33 150.5,-213.67 150.5,-213.67 150.5,-218.33 145.83,-223 141.17,-223 141.17,-223 19.83,-223 19.83,-223 15.17,-223 10.5,-218.33 10.5,-213.67 10.5,-213.67 10.5,-204.33 10.5,-204.33 10.5,-199.67 15.17,-195 19.83,-195"/>
<text text-anchor="middle" x="80.5" y="-204.6" font-family="Times,serif" font-size="18.00">mutt_config.c</text>
</g>
<!-- makedoc_c -->
<g id="node20" class="node">
<title>makedoc_c</title>
<polygon fill="none" stroke="green" stroke-width="2" points="371,-223 252,-223 252,-195 371,-195 371,-223"/>
<text text-anchor="middle" x="311.5" y="-204.6" font-family="Times,serif" font-size="18.00">makedoc &#45;c</text>
</g>
<!-- mutt_config_c&#45;&gt;makedoc_c -->
<g id="edge12" class="edge">
<title>mutt_config_c&#45;&gt;makedoc_c</title>
<path fill="none" stroke="#000000" stroke-width="1.5" d="M150.52,-209C179.25,-209 212.55,-209 241.31,-209"/>
<polygon fill="#000000" stroke="#000000" stroke-width="1.5" points="241.68,-212.5 251.68,-209 241.68,-205.5 241.68,-212.5"/>
</g>
<!-- makedoc_m -->
<g id="node21" class="node">
<title>makedoc_m</title>
<polygon fill="none" stroke="green" stroke-width="2" points="375,-28 248,-28 248,0 375,0 375,-28"/>
<text text-anchor="middle" x="311.5" y="-9.6" font-family="Times,serif" font-size="18.00">makedoc &#45;m</text>
</g>
<!-- mutt_config_c&#45;&gt;makedoc_m -->
<g id="edge7" class="edge">
<title>mutt_config_c&#45;&gt;makedoc_m</title>
<path fill="none" stroke="#000000" stroke-width="1.5" d="M88.66,-194.89C105.35,-163.4 149.95,-86.94 209,-46 217.89,-39.83 228.03,-34.81 238.38,-30.74"/>
<polygon fill="#000000" stroke="#000000" stroke-width="1.5" points="239.72,-33.98 247.91,-27.26 237.31,-27.4 239.72,-33.98"/>
</g>
<!-- makedoc_s -->
<g id="node22" class="node">
<title>makedoc_s</title>
<polygon fill="none" stroke="green" stroke-width="2" points="371,-353 252,-353 252,-325 371,-325 371,-353"/>
<text text-anchor="middle" x="311.5" y="-334.6" font-family="Times,serif" font-size="18.00">makedoc &#45;s</text>
</g>
<!-- mutt_config_c&#45;&gt;makedoc_s -->
<g id="edge19" class="edge">
<title>mutt_config_c&#45;&gt;makedoc_s</title>
<path fill="none" stroke="#000000" stroke-width="1.5" d="M96.43,-223.09C119.13,-243.83 164.4,-282.65 209,-306 220.64,-312.1 233.62,-317.35 246.31,-321.75"/>
<polygon fill="#000000" stroke="#000000" stroke-width="1.5" points="245.33,-325.12 255.92,-324.96 247.54,-318.48 245.33,-325.12"/>
<text text-anchor="middle" x="185" y="-303.8" font-family="Times,serif" font-size="14.00">cpp</text>
</g>
<!-- lots_1 -->
<g id="node4" class="node">
<title>lots_1</title>
<path fill="none" stroke="blue" stroke-width="2" d="M254.33,-519C254.33,-519 368.67,-519 368.67,-519 373.33,-519 378,-523.67 378,-528.33 378,-528.33 378,-537.67 378,-537.67 378,-542.33 373.33,-547 368.67,-547 368.67,-547 254.33,-547 254.33,-547 249.67,-547 245,-542.33 245,-537.67 245,-537.67 245,-528.33 245,-528.33 245,-523.67 249.67,-519 254.33,-519"/>
<text text-anchor="middle" x="311.5" y="-528.6" font-family="Times,serif" font-size="18.00">{example.1}</text>
</g>
<!-- lots_man -->
<g id="node5" class="node">
<title>lots_man</title>
<path fill="none" stroke="blue" stroke-width="2" d="M9.33,-519C9.33,-519 151.67,-519 151.67,-519 156.33,-519 161,-523.67 161,-528.33 161,-528.33 161,-537.67 161,-537.67 161,-542.33 156.33,-547 151.67,-547 151.67,-547 9.33,-547 9.33,-547 4.67,-547 0,-542.33 0,-537.67 0,-537.67 0,-528.33 0,-528.33 0,-523.67 4.67,-519 9.33,-519"/>
<text text-anchor="middle" x="80.5" y="-528.6" font-family="Times,serif" font-size="18.00">{example.man}</text>
</g>
<!-- lots_man&#45;&gt;lots_1 -->
<g id="edge1" class="edge">
<title>lots_man&#45;&gt;lots_1</title>
<path fill="none" stroke="#000000" stroke-width="1.5" d="M161.27,-533C185,-533 210.92,-533 234.4,-533"/>
<polygon fill="#000000" stroke="#000000" stroke-width="1.5" points="234.65,-536.5 244.65,-533 234.65,-529.5 234.65,-536.5"/>
<text text-anchor="middle" x="185" y="-536.8" font-family="Times,serif" font-size="14.00">sed</text>
</g>
<!-- lots_xsl -->
<g id="node6" class="node">
<title>lots_xsl</title>
<path fill="none" stroke="blue" stroke-width="2" d="M470.33,-454C470.33,-454 597.67,-454 597.67,-454 602.33,-454 607,-458.67 607,-463.33 607,-463.33 607,-472.67 607,-472.67 607,-477.33 602.33,-482 597.67,-482 597.67,-482 470.33,-482 470.33,-482 465.67,-482 461,-477.33 461,-472.67 461,-472.67 461,-463.33 461,-463.33 461,-458.67 465.67,-454 470.33,-454"/>
<text text-anchor="middle" x="534" y="-463.6" font-family="Times,serif" font-size="18.00">{neomutt.xsl}</text>
</g>
<!-- xsltproc -->
<g id="node23" class="node">
<title>xsltproc</title>
<polygon fill="none" stroke="blue" stroke-width="2" points="719,-417 630,-417 630,-389 719,-389 719,-417"/>
<text text-anchor="middle" x="674.5" y="-398.6" font-family="Times,serif" font-size="18.00">xsltproc</text>
</g>
<!-- lots_xsl&#45;&gt;xsltproc -->
<g id="edge3" class="edge">
<title>lots_xsl&#45;&gt;xsltproc</title>
<path fill="none" stroke="#000000" stroke-width="1.5" d="M568.32,-453.87C583.83,-447.15 602.46,-438.88 619,-431 625.13,-428.08 631.59,-424.87 637.84,-421.71"/>
<polygon fill="#000000" stroke="#000000" stroke-width="1.5" points="639.46,-424.81 646.77,-417.14 636.27,-418.58 639.46,-424.81"/>
</g>
<!-- makedoc_src -->
<g id="node7" class="node">
<title>makedoc_src</title>
<path fill="none" stroke="blue" stroke-width="2" d="M33.33,-584C33.33,-584 127.67,-584 127.67,-584 132.33,-584 137,-588.67 137,-593.33 137,-593.33 137,-602.67 137,-602.67 137,-607.33 132.33,-612 127.67,-612 127.67,-612 33.33,-612 33.33,-612 28.67,-612 24,-607.33 24,-602.67 24,-602.67 24,-593.33 24,-593.33 24,-588.67 28.67,-584 33.33,-584"/>
<text text-anchor="middle" x="80.5" y="-593.6" font-family="Times,serif" font-size="18.00">makedoc.c</text>
</g>
<!-- makedoc -->
<g id="node24" class="node">
<title>makedoc</title>
<path fill="none" stroke="blue" stroke-width="2" d="M271.83,-584C271.83,-584 351.17,-584 351.17,-584 355.83,-584 360.5,-588.67 360.5,-593.33 360.5,-593.33 360.5,-602.67 360.5,-602.67 360.5,-607.33 355.83,-612 351.17,-612 351.17,-612 271.83,-612 271.83,-612 267.17,-612 262.5,-607.33 262.5,-602.67 262.5,-602.67 262.5,-593.33 262.5,-593.33 262.5,-588.67 267.17,-584 271.83,-584"/>
<text text-anchor="middle" x="311.5" y="-593.6" font-family="Times,serif" font-size="18.00">makedoc</text>
</g>
<!-- makedoc_src&#45;&gt;makedoc -->
<g id="edge14" class="edge">
<title>makedoc_src&#45;&gt;makedoc</title>
<path fill="none" stroke="#000000" stroke-width="1.5" d="M137.23,-598C172.05,-598 216.83,-598 252.14,-598"/>
<polygon fill="#000000" stroke="#000000" stroke-width="1.5" points="252.3,-601.5 262.3,-598 252.3,-594.5 252.3,-601.5"/>
<text text-anchor="middle" x="185" y="-601.8" font-family="Times,serif" font-size="14.00">gcc</text>
</g>
<!-- manual_html -->
<g id="node8" class="node">
<title>manual_html</title>
<path fill="none" stroke="blue" stroke-width="2" d="M751.33,-389C751.33,-389 886.67,-389 886.67,-389 891.33,-389 896,-393.67 896,-398.33 896,-398.33 896,-407.67 896,-407.67 896,-412.33 891.33,-417 886.67,-417 886.67,-417 751.33,-417 751.33,-417 746.67,-417 742,-412.33 742,-407.67 742,-407.67 742,-398.33 742,-398.33 742,-393.67 746.67,-389 751.33,-389"/>
<text text-anchor="middle" x="819" y="-398.6" font-family="Times,serif" font-size="18.00">{manual.html}</text>
</g>
<!-- manual_txt -->
<g id="node9" class="node">
<title>manual_txt</title>
<path fill="none" stroke="blue" stroke-width="2" d="M1000.33,-389C1000.33,-389 1096.67,-389 1096.67,-389 1101.33,-389 1106,-393.67 1106,-398.33 1106,-398.33 1106,-407.67 1106,-407.67 1106,-412.33 1101.33,-417 1096.67,-417 1096.67,-417 1000.33,-417 1000.33,-417 995.67,-417 991,-412.33 991,-407.67 991,-407.67 991,-398.33 991,-398.33 991,-393.67 995.67,-389 1000.33,-389"/>
<text text-anchor="middle" x="1048.5" y="-398.6" font-family="Times,serif" font-size="18.00">manual.txt</text>
</g>
<!-- manual_html&#45;&gt;manual_txt -->
<g id="edge6" class="edge">
<title>manual_html&#45;&gt;manual_txt</title>
<path fill="none" stroke="#000000" stroke-width="1.5" d="M896.07,-403C923.44,-403 954.09,-403 980.62,-403"/>
<polygon fill="#000000" stroke="#000000" stroke-width="1.5" points="980.94,-406.5 990.94,-403 980.94,-399.5 980.94,-406.5"/>
<text text-anchor="middle" x="943.5" y="-406.8" font-family="Times,serif" font-size="14.00">w3m/links</text>
</g>
<!-- manual_xml -->
<g id="node10" class="node">
<title>manual_xml</title>
<path fill="none" stroke="blue" stroke-width="2" d="M481.83,-389C481.83,-389 586.17,-389 586.17,-389 590.83,-389 595.5,-393.67 595.5,-398.33 595.5,-398.33 595.5,-407.67 595.5,-407.67 595.5,-412.33 590.83,-417 586.17,-417 586.17,-417 481.83,-417 481.83,-417 477.17,-417 472.5,-412.33 472.5,-407.67 472.5,-407.67 472.5,-398.33 472.5,-398.33 472.5,-393.67 477.17,-389 481.83,-389"/>
<text text-anchor="middle" x="534" y="-398.6" font-family="Times,serif" font-size="18.00">manual.xml</text>
</g>
<!-- manual_xml&#45;&gt;xsltproc -->
<g id="edge2" class="edge">
<title>manual_xml&#45;&gt;xsltproc</title>
<path fill="none" stroke="#000000" stroke-width="1.5" d="M595.75,-403C603.73,-403 611.87,-403 619.73,-403"/>
<polygon fill="#000000" stroke="#000000" stroke-width="1.5" points="619.86,-406.5 629.86,-403 619.86,-399.5 619.86,-406.5"/>
</g>
<!-- manual_xml_head -->
<g id="node11" class="node">
<title>manual_xml_head</title>
<path fill="none" stroke="blue" stroke-width="2" d="M234.33,-454C234.33,-454 388.67,-454 388.67,-454 393.33,-454 398,-458.67 398,-463.33 398,-463.33 398,-472.67 398,-472.67 398,-477.33 393.33,-482 388.67,-482 388.67,-482 234.33,-482 234.33,-482 229.67,-482 225,-477.33 225,-472.67 225,-472.67 225,-463.33 225,-463.33 225,-458.67 229.67,-454 234.33,-454"/>
<text text-anchor="middle" x="311.5" y="-463.6" font-family="Times,serif" font-size="18.00">manual.xml.head</text>
</g>
<!-- manual_xml_head&#45;&gt;manual_xml -->
<g id="edge15" class="edge">
<title>manual_xml_head&#45;&gt;manual_xml</title>
<path fill="none" stroke="#000000" stroke-width="1.5" d="M361.21,-453.95C387.52,-446.33 420.56,-436.72 450,-428 458.69,-425.43 467.88,-422.68 476.86,-419.99"/>
<polygon fill="#000000" stroke="#000000" stroke-width="1.5" points="477.92,-423.32 486.49,-417.09 475.91,-416.62 477.92,-423.32"/>
<text text-anchor="middle" x="437.5" y="-438.8" font-family="Times,serif" font-size="14.00">sed</text>
</g>
<!-- manual_xml_tail -->
<g id="node12" class="node">
<title>manual_xml_tail</title>
<path fill="none" stroke="blue" stroke-width="2" d="M10.33,-324C10.33,-324 150.67,-324 150.67,-324 155.33,-324 160,-328.67 160,-333.33 160,-333.33 160,-342.67 160,-342.67 160,-347.33 155.33,-352 150.67,-352 150.67,-352 10.33,-352 10.33,-352 5.67,-352 1,-347.33 1,-342.67 1,-342.67 1,-333.33 1,-333.33 1,-328.67 5.67,-324 10.33,-324"/>
<text text-anchor="middle" x="80.5" y="-333.6" font-family="Times,serif" font-size="18.00">manual.xml.tail</text>
</g>
<!-- manual_xml_tail&#45;&gt;gen_map_doc -->
<g id="edge16" class="edge">
<title>manual_xml_tail&#45;&gt;gen_map_doc</title>
<path fill="none" stroke="#000000" stroke-width="1.5" d="M130.91,-352.02C166.15,-362.03 213.72,-375.53 251.04,-386.12"/>
<polygon fill="#000000" stroke="#000000" stroke-width="1.5" points="250.21,-389.53 260.79,-388.89 252.12,-382.79 250.21,-389.53"/>
</g>
<!-- neomuttrc -->
<g id="node13" class="node">
<title>neomuttrc</title>
<path fill="none" stroke="blue" stroke-width="2" d="M488.33,-228C488.33,-228 579.67,-228 579.67,-228 584.33,-228 589,-232.67 589,-237.33 589,-237.33 589,-246.67 589,-246.67 589,-251.33 584.33,-256 579.67,-256 579.67,-256 488.33,-256 488.33,-256 483.67,-256 479,-251.33 479,-246.67 479,-246.67 479,-237.33 479,-237.33 479,-232.67 483.67,-228 488.33,-228"/>
<text text-anchor="middle" x="534" y="-237.6" font-family="Times,serif" font-size="18.00">neomuttrc</text>
</g>
<!-- neomuttrc_head -->
<g id="node14" class="node">
<title>neomuttrc_head</title>
<path fill="none" stroke="blue" stroke-width="2" d="M240.83,-260C240.83,-260 382.17,-260 382.17,-260 386.83,-260 391.5,-264.67 391.5,-269.33 391.5,-269.33 391.5,-278.67 391.5,-278.67 391.5,-283.33 386.83,-288 382.17,-288 382.17,-288 240.83,-288 240.83,-288 236.17,-288 231.5,-283.33 231.5,-278.67 231.5,-278.67 231.5,-269.33 231.5,-269.33 231.5,-264.67 236.17,-260 240.83,-260"/>
<text text-anchor="middle" x="311.5" y="-269.6" font-family="Times,serif" font-size="18.00">neomuttrc.head</text>
</g>
<!-- neomuttrc_head&#45;&gt;neomuttrc -->
<g id="edge11" class="edge">
<title>neomuttrc_head&#45;&gt;neomuttrc</title>
<path fill="none" stroke="#000000" stroke-width="1.5" d="M391.79,-262.49C417.07,-258.82 444.72,-254.81 468.79,-251.32"/>
<polygon fill="#000000" stroke="#000000" stroke-width="1.5" points="469.48,-254.76 478.87,-249.86 468.47,-247.83 469.48,-254.76"/>
<text text-anchor="middle" x="437.5" y="-261.8" font-family="Times,serif" font-size="14.00">sed</text>
</g>
<!-- neomuttrc_man -->
<g id="node15" class="node">
<title>neomuttrc_man</title>
<path fill="none" stroke="blue" stroke-width="2" d="M479.33,-65C479.33,-65 588.67,-65 588.67,-65 593.33,-65 598,-69.67 598,-74.33 598,-74.33 598,-83.67 598,-83.67 598,-88.33 593.33,-93 588.67,-93 588.67,-93 479.33,-93 479.33,-93 474.67,-93 470,-88.33 470,-83.67 470,-83.67 470,-74.33 470,-74.33 470,-69.67 474.67,-65 479.33,-65"/>
<text text-anchor="middle" x="534" y="-74.6" font-family="Times,serif" font-size="18.00">neomuttrc.5</text>
</g>
<!-- neomuttrc_man_head -->
<g id="node16" class="node">
<title>neomuttrc_man_head</title>
<path fill="none" stroke="blue" stroke-width="2" d="M218.33,-130C218.33,-130 404.67,-130 404.67,-130 409.33,-130 414,-134.67 414,-139.33 414,-139.33 414,-148.67 414,-148.67 414,-153.33 409.33,-158 404.67,-158 404.67,-158 218.33,-158 218.33,-158 213.67,-158 209,-153.33 209,-148.67 209,-148.67 209,-139.33 209,-139.33 209,-134.67 213.67,-130 218.33,-130"/>
<text text-anchor="middle" x="311.5" y="-139.6" font-family="Times,serif" font-size="18.00">neomuttrc.man.head</text>
</g>
<!-- neomuttrc_man_head&#45;&gt;neomuttrc_man -->
<g id="edge8" class="edge">
<title>neomuttrc_man_head&#45;&gt;neomuttrc_man</title>
<path fill="none" stroke="#000000" stroke-width="1.5" d="M367.92,-129.93C393.08,-123.33 423.15,-115.13 450,-107 460.92,-103.69 472.57,-99.92 483.58,-96.24"/>
<polygon fill="#000000" stroke="#000000" stroke-width="1.5" points="484.7,-99.55 493.06,-93.04 482.46,-92.92 484.7,-99.55"/>
</g>
<!-- neomuttrc_man_tail -->
<g id="node17" class="node">
<title>neomuttrc_man_tail</title>
<path fill="none" stroke="blue" stroke-width="2" d="M225.33,-65C225.33,-65 397.67,-65 397.67,-65 402.33,-65 407,-69.67 407,-74.33 407,-74.33 407,-83.67 407,-83.67 407,-88.33 402.33,-93 397.67,-93 397.67,-93 225.33,-93 225.33,-93 220.67,-93 216,-88.33 216,-83.67 216,-83.67 216,-74.33 216,-74.33 216,-69.67 220.67,-65 225.33,-65"/>
<text text-anchor="middle" x="311.5" y="-74.6" font-family="Times,serif" font-size="18.00">neomuttrc.man.tail</text>
</g>
<!-- neomuttrc_man_tail&#45;&gt;neomuttrc_man -->
<g id="edge10" class="edge">
<title>neomuttrc_man_tail&#45;&gt;neomuttrc_man</title>
<path fill="none" stroke="#000000" stroke-width="1.5" d="M407.29,-79C424.79,-79 442.81,-79 459.56,-79"/>
<polygon fill="#000000" stroke="#000000" stroke-width="1.5" points="459.8,-82.5 469.8,-79 459.8,-75.5 459.8,-82.5"/>
</g>
<!-- neomutt_css -->
<g id="node18" class="node">
<title>neomutt_css</title>
<path fill="none" stroke="blue" stroke-width="2" d="M480.33,-324C480.33,-324 587.67,-324 587.67,-324 592.33,-324 597,-328.67 597,-333.33 597,-333.33 597,-342.67 597,-342.67 597,-347.33 592.33,-352 587.67,-352 587.67,-352 480.33,-352 480.33,-352 475.67,-352 471,-347.33 471,-342.67 471,-342.67 471,-333.33 471,-333.33 471,-328.67 475.67,-324 480.33,-324"/>
<text text-anchor="middle" x="534" y="-333.6" font-family="Times,serif" font-size="18.00">neomutt.css</text>
</g>
<!-- neomutt_css&#45;&gt;xsltproc -->
<g id="edge4" class="edge">
<title>neomutt_css&#45;&gt;xsltproc</title>
<path fill="none" stroke="#000000" stroke-width="1.5" d="M567.39,-352.05C579.83,-357.53 594.13,-363.95 607,-370 616.72,-374.57 627.17,-379.66 636.83,-384.45"/>
<polygon fill="#000000" stroke="#000000" stroke-width="1.5" points="635.29,-387.6 645.8,-388.93 638.41,-381.33 635.29,-387.6"/>
</g>
<!-- gen_map_doc&#45;&gt;manual_xml -->
<g id="edge18" class="edge">
<title>gen_map_doc&#45;&gt;manual_xml</title>
<path fill="none" stroke="#000000" stroke-width="1.5" d="M377.76,-403C404.34,-403 435.12,-403 462.24,-403"/>
<polygon fill="#000000" stroke="#000000" stroke-width="1.5" points="462.43,-406.5 472.43,-403 462.43,-399.5 462.43,-406.5"/>
</g>
<!-- makedoc_c&#45;&gt;neomuttrc -->
<g id="edge13" class="edge">
<title>makedoc_c&#45;&gt;neomuttrc</title>
<path fill="none" stroke="#000000" stroke-width="1.5" d="M371.01,-217.76C401.04,-222.25 437.7,-227.74 468.54,-232.35"/>
<polygon fill="#000000" stroke="#000000" stroke-width="1.5" points="468.35,-235.86 478.76,-233.88 469.39,-228.94 468.35,-235.86"/>
</g>
<!-- makedoc_m&#45;&gt;neomuttrc_man -->
<g id="edge9" class="edge">
<title>makedoc_m&#45;&gt;neomuttrc_man</title>
<path fill="none" stroke="#000000" stroke-width="1.5" d="M360.07,-28.02C393.86,-37.99 439.42,-51.41 475.29,-61.99"/>
<polygon fill="#000000" stroke="#000000" stroke-width="1.5" points="474.55,-65.42 485.13,-64.89 476.53,-58.7 474.55,-65.42"/>
</g>
<!-- makedoc_s&#45;&gt;manual_xml -->
<g id="edge20" class="edge">
<title>makedoc_s&#45;&gt;manual_xml</title>
<path fill="none" stroke="#000000" stroke-width="1.5" d="M360.89,-353.05C394.49,-362.8 439.44,-375.84 474.97,-386.16"/>
<polygon fill="#000000" stroke="#000000" stroke-width="1.5" points="474.14,-389.56 484.72,-388.99 476.1,-382.84 474.14,-389.56"/>
</g>
<!-- xsltproc&#45;&gt;manual_html -->
<g id="edge5" class="edge">
<title>xsltproc&#45;&gt;manual_html</title>
<path fill="none" stroke="#000000" stroke-width="1.5" d="M719.03,-403C723.13,-403 727.37,-403 731.69,-403"/>
<polygon fill="#000000" stroke="#000000" stroke-width="1.5" points="731.88,-406.5 741.88,-403 731.88,-399.5 731.88,-406.5"/>
</g>
</g>
</svg>
