<?xml version="1.0" encoding="UTF-8" standalone="no"?>
<!DOCTYPE svg PUBLIC "-//W3C//DTD SVG 1.1//EN"
 "http://www.w3.org/Graphics/SVG/1.1/DTD/svg11.dtd">
<!-- Generated by graphviz version 2.42.4 (0)
 -->
<!-- Title: build Pages: 1 -->
<svg width="1800pt" height="789pt"
 viewBox="0.00 0.00 1800.00 789.00" xmlns="http://www.w3.org/2000/svg" xmlns:xlink="http://www.w3.org/1999/xlink">
<g id="graph0" class="graph" transform="scale(1 1) rotate(0) translate(4 785)">
<title>build</title>
<polygon fill="white" stroke="transparent" points="-4,4 -4,-785 1796,-785 1796,4 -4,4"/>
<g id="clust1" class="cluster">
<title>cluster_libraries</title>
<polygon fill="none" stroke="#ff0000" points="599.5,-476 599.5,-566 1486.5,-566 1486.5,-476 599.5,-476"/>
<text text-anchor="middle" x="1043" y="-550.8" font-family="Times,serif" font-size="14.00" fill="red">LIBRARIES: address, alias, autocrypt, bcache, compress, config, conn, core, debug, email, gui, history, mutt, ncrypt, store</text>
</g>
<g id="clust2" class="cluster">
<title>cluster_backends</title>
<polygon fill="none" stroke="#ff0000" points="771,-378 771,-468 1314,-468 1314,-378 771,-378"/>
<text text-anchor="middle" x="1042.5" y="-452.8" font-family="Times,serif" font-size="14.00" fill="red">MAIL BACKENDS: compmbox, imap, maildir, mbox, nntp, notmuch, pop</text>
</g>
<g id="clust3" class="cluster">
<title>cluster_hcache</title>
<polygon fill="none" stroke="#ff0000" points="371.5,-574 371.5,-773 1307.5,-773 1307.5,-574 371.5,-574"/>
<text text-anchor="middle" x="839.5" y="-757.8" font-family="Times,serif" font-size="14.00" fill="red">HCACHE</text>
</g>
<g id="clust4" class="cluster">
<title>cluster_source</title>
<polygon fill="none" stroke="#ff0000" points="369,-106 369,-370 910,-370 910,-106 369,-106"/>
<text text-anchor="middle" x="639.5" y="-354.8" font-family="Times,serif" font-size="14.00" fill="red">SOURCE</text>
</g>
<g id="clust5" class="cluster">
<title>cluster_messages</title>
<polygon fill="none" stroke="#ff0000" points="400.5,-8 400.5,-98 1680,-98 1680,-8 400.5,-8"/>
<text text-anchor="middle" x="1040.25" y="-82.8" font-family="Times,serif" font-size="14.00" fill="red">MESSAGES</text>
</g>
<g id="clust6" class="cluster">
<title>cluster_tools</title>
<polygon fill="none" stroke="#ff0000" points="8,-534 8,-624 335.5,-624 335.5,-534 8,-534"/>
<text text-anchor="middle" x="171.75" y="-608.8" font-family="Times,serif" font-size="14.00" fill="red">TOOLS</text>
</g>
<!-- config_h -->
<g id="node1" class="node">
<title>config_h</title>
<path fill="none" stroke="blue" stroke-width="2" d="M238.83,-340C238.83,-340 309.17,-340 309.17,-340 313.83,-340 318.5,-344.67 318.5,-349.33 318.5,-349.33 318.5,-358.67 318.5,-358.67 318.5,-363.33 313.83,-368 309.17,-368 309.17,-368 238.83,-368 238.83,-368 234.17,-368 229.5,-363.33 229.5,-358.67 229.5,-358.67 229.5,-349.33 229.5,-349.33 229.5,-344.67 234.17,-340 238.83,-340"/>
<text text-anchor="middle" x="274" y="-349.6" font-family="Times,serif" font-size="18.00">config.h</text>
</g>
<!-- generated -->
<g id="node10" class="node">
<title>generated</title>
<path fill="none" stroke="blue" stroke-width="2" d="M401.33,-180C401.33,-180 528.67,-180 528.67,-180 533.33,-180 538,-184.67 538,-189.33 538,-189.33 538,-198.67 538,-198.67 538,-203.33 533.33,-208 528.67,-208 528.67,-208 401.33,-208 401.33,-208 396.67,-208 392,-203.33 392,-198.67 392,-198.67 392,-189.33 392,-189.33 392,-184.67 396.67,-180 401.33,-180"/>
<text text-anchor="middle" x="465" y="-189.6" font-family="Times,serif" font-size="18.00">{generated.c}</text>
</g>
<!-- config_h&#45;&gt;generated -->
<g id="edge4" class="edge">
<title>config_h&#45;&gt;generated</title>
<path fill="none" stroke="#000000" stroke-width="1.5" stroke-dasharray="5,2" d="M318.61,-340.26C329.29,-335.57 340.17,-329.55 349,-322 356.59,-315.51 357.72,-312.44 361,-303 366.57,-286.96 358.45,-240.3 369,-227 373.3,-221.58 378.55,-217.04 384.35,-213.25"/>
<polygon fill="#000000" stroke="#000000" stroke-width="1.5" points="386.23,-216.21 393.19,-208.21 382.77,-210.12 386.23,-216.21"/>
</g>
<!-- hcachever_sh -->
<g id="node11" class="node">
<title>hcachever_sh</title>
<polygon fill="none" stroke="green" stroke-width="2" points="550.5,-610 379.5,-610 379.5,-582 550.5,-582 550.5,-610"/>
<text text-anchor="start" x="387.5" y="-592.6" font-family="Times,serif" font-size="18.00">hcachever.sh </text>
<text text-anchor="start" x="511.5" y="-592.6" font-family="Times,serif" font-size="18.00" fill="red">●</text>
<text text-anchor="start" x="527.5" y="-592.6" font-family="Times,serif" font-size="18.00" fill="green">★</text>
</g>
<!-- config_h&#45;&gt;hcachever_sh -->
<g id="edge9" class="edge">
<title>config_h&#45;&gt;hcachever_sh</title>
<path fill="none" stroke="#000000" stroke-width="1.5" d="M281.02,-368.43C293.24,-396.68 322.95,-460.53 360,-506 382.2,-533.25 413.25,-558.92 435.64,-575.81"/>
<polygon fill="#000000" stroke="#000000" stroke-width="1.5" points="433.64,-578.69 443.76,-581.84 437.82,-573.07 433.64,-578.69"/>
</g>
<!-- conststrings_c -->
<g id="node2" class="node">
<title>conststrings_c</title>
<path fill="none" stroke="blue" stroke-width="2" d="M211.83,-210C211.83,-210 336.17,-210 336.17,-210 340.83,-210 345.5,-214.67 345.5,-219.33 345.5,-219.33 345.5,-228.67 345.5,-228.67 345.5,-233.33 340.83,-238 336.17,-238 336.17,-238 211.83,-238 211.83,-238 207.17,-238 202.5,-233.33 202.5,-228.67 202.5,-228.67 202.5,-219.33 202.5,-219.33 202.5,-214.67 207.17,-210 211.83,-210"/>
<text text-anchor="middle" x="274" y="-219.6" font-family="Times,serif" font-size="18.00">conststrings.c</text>
</g>
<!-- conststrings_c&#45;&gt;generated -->
<g id="edge6" class="edge">
<title>conststrings_c&#45;&gt;generated</title>
<path fill="none" stroke="#000000" stroke-width="1.5" stroke-dasharray="5,2" d="M345.65,-212.79C357.44,-210.91 369.77,-208.96 381.82,-207.04"/>
<polygon fill="#000000" stroke="#000000" stroke-width="1.5" points="382.54,-210.47 391.86,-205.45 381.44,-203.56 382.54,-210.47"/>
</g>
<!-- gitver_c -->
<g id="node3" class="node">
<title>gitver_c</title>
<path fill="none" stroke="blue" stroke-width="2" d="M240.83,-145C240.83,-145 307.17,-145 307.17,-145 311.83,-145 316.5,-149.67 316.5,-154.33 316.5,-154.33 316.5,-163.67 316.5,-163.67 316.5,-168.33 311.83,-173 307.17,-173 307.17,-173 240.83,-173 240.83,-173 236.17,-173 231.5,-168.33 231.5,-163.67 231.5,-163.67 231.5,-154.33 231.5,-154.33 231.5,-149.67 236.17,-145 240.83,-145"/>
<text text-anchor="middle" x="274" y="-154.6" font-family="Times,serif" font-size="18.00">gitver.c</text>
</g>
<!-- gitver_c&#45;&gt;generated -->
<g id="edge8" class="edge">
<title>gitver_c&#45;&gt;generated</title>
<path fill="none" stroke="#000000" stroke-width="1.5" stroke-dasharray="5,2" d="M316.95,-166.77C336.08,-170.31 359.43,-174.64 381.84,-178.79"/>
<polygon fill="#000000" stroke="#000000" stroke-width="1.5" points="381.24,-182.23 391.71,-180.61 382.52,-175.35 381.24,-182.23"/>
</g>
<!-- mutt_h -->
<g id="node4" class="node">
<title>mutt_h</title>
<path fill="none" stroke="blue" stroke-width="2" d="M208.33,-275C208.33,-275 339.67,-275 339.67,-275 344.33,-275 349,-279.67 349,-284.33 349,-284.33 349,-293.67 349,-293.67 349,-298.33 344.33,-303 339.67,-303 339.67,-303 208.33,-303 208.33,-303 203.67,-303 199,-298.33 199,-293.67 199,-293.67 199,-284.33 199,-284.33 199,-279.67 203.67,-275 208.33,-275"/>
<text text-anchor="middle" x="274" y="-284.6" font-family="Times,serif" font-size="18.00">{hcache deps}</text>
</g>
<!-- mutt_h&#45;&gt;hcachever_sh -->
<g id="edge10" class="edge">
<title>mutt_h&#45;&gt;hcachever_sh</title>
<path fill="none" stroke="#000000" stroke-width="1.5" d="M322.18,-303.15C332.04,-307.87 341.66,-314.03 349,-322 367.19,-341.75 359.17,-354.02 369,-379 397.13,-450.46 434.77,-533.14 453.08,-572.64"/>
<polygon fill="#000000" stroke="#000000" stroke-width="1.5" points="450.01,-574.34 457.4,-581.94 456.36,-571.39 450.01,-574.34"/>
</g>
<!-- compulsory -->
<g id="node12" class="node">
<title>compulsory</title>
<path fill="none" stroke="blue" stroke-width="2" d="M396.33,-115C396.33,-115 533.67,-115 533.67,-115 538.33,-115 543,-119.67 543,-124.33 543,-124.33 543,-133.67 543,-133.67 543,-138.33 538.33,-143 533.67,-143 533.67,-143 396.33,-143 396.33,-143 391.67,-143 387,-138.33 387,-133.67 387,-133.67 387,-124.33 387,-124.33 387,-119.67 391.67,-115 396.33,-115"/>
<text text-anchor="middle" x="465" y="-124.6" font-family="Times,serif" font-size="18.00">{compulsory.c}</text>
</g>
<!-- mutt_h&#45;&gt;compulsory -->
<g id="edge11" class="edge">
<title>mutt_h&#45;&gt;compulsory</title>
<path fill="none" stroke="#000000" stroke-width="1.5" stroke-dasharray="5,2" d="M325.61,-274.89C334.46,-270.42 342.8,-264.59 349,-257 376.3,-223.59 340.48,-194.38 369,-162 373.92,-156.41 379.83,-151.77 386.27,-147.92"/>
<polygon fill="#000000" stroke="#000000" stroke-width="1.5" points="388.13,-150.9 395.34,-143.13 384.87,-144.71 388.13,-150.9"/>
</g>
<!-- dot_configure -->
<g id="node5" class="node">
<title>dot_configure</title>
<polygon fill="none" stroke="blue" stroke-width="2" points="152,-281 2,-281 2,-253 152,-253 152,-281"/>
<text text-anchor="start" x="10" y="-263.6" font-family="Times,serif" font-size="18.00">./configure </text>
<text text-anchor="start" x="113" y="-263.6" font-family="Times,serif" font-size="18.00" fill="red">●</text>
<text text-anchor="start" x="129" y="-263.6" font-family="Times,serif" font-size="18.00" fill="green">★</text>
</g>
<!-- dot_configure&#45;&gt;config_h -->
<g id="edge3" class="edge">
<title>dot_configure&#45;&gt;config_h</title>
<path fill="none" stroke="#000000" stroke-width="1.5" d="M108.51,-281.06C132.94,-292.27 168.1,-308.3 199,-322 209.29,-326.56 220.41,-331.41 230.83,-335.92"/>
<polygon fill="#000000" stroke="#000000" stroke-width="1.5" points="229.59,-339.2 240.16,-339.95 232.36,-332.77 229.59,-339.2"/>
</g>
<!-- dot_configure&#45;&gt;conststrings_c -->
<g id="edge5" class="edge">
<title>dot_configure&#45;&gt;conststrings_c</title>
<path fill="none" stroke="#000000" stroke-width="1.5" d="M141.58,-252.98C160.13,-248.89 180.55,-244.39 199.65,-240.17"/>
<polygon fill="#000000" stroke="#000000" stroke-width="1.5" points="200.49,-243.57 209.51,-238 198.99,-236.74 200.49,-243.57"/>
</g>
<!-- git -->
<g id="node6" class="node">
<title>git</title>
<polygon fill="none" stroke="blue" stroke-width="2" points="108.5,-173 45.5,-173 45.5,-145 108.5,-145 108.5,-173"/>
<text text-anchor="start" x="53.5" y="-155.6" font-family="Times,serif" font-size="18.00">git </text>
<text text-anchor="start" x="84.5" y="-155.6" font-family="Times,serif" font-size="18.00" fill="red">●</text>
</g>
<!-- git&#45;&gt;gitver_c -->
<g id="edge7" class="edge">
<title>git&#45;&gt;gitver_c</title>
<path fill="none" stroke="#000000" stroke-width="1.5" d="M108.9,-159C139,-159 185.34,-159 221.1,-159"/>
<polygon fill="#000000" stroke="#000000" stroke-width="1.5" points="221.36,-162.5 231.36,-159 221.36,-155.5 221.36,-162.5"/>
</g>
<!-- ld_mutt -->
<g id="node7" class="node">
<title>ld_mutt</title>
<polygon fill="none" stroke="blue" stroke-width="2" points="1643,-479 1589,-479 1589,-451 1643,-451 1643,-479"/>
<text text-anchor="middle" x="1616" y="-460.6" font-family="Times,serif" font-size="18.00">ld</text>
</g>
<!-- neomutt -->
<g id="node9" class="node">
<title>neomutt</title>
<path fill="none" stroke="blue" stroke-width="2" d="M1709.33,-451C1709.33,-451 1782.67,-451 1782.67,-451 1787.33,-451 1792,-455.67 1792,-460.33 1792,-460.33 1792,-469.67 1792,-469.67 1792,-474.33 1787.33,-479 1782.67,-479 1782.67,-479 1709.33,-479 1709.33,-479 1704.67,-479 1700,-474.33 1700,-469.67 1700,-469.67 1700,-460.33 1700,-460.33 1700,-455.67 1704.67,-451 1709.33,-451"/>
<text text-anchor="middle" x="1746" y="-460.6" font-family="Times,serif" font-size="18.00">neomutt</text>
</g>
<!-- ld_mutt&#45;&gt;neomutt -->
<g id="edge2" class="edge">
<title>ld_mutt&#45;&gt;neomutt</title>
<path fill="none" stroke="#000000" stroke-width="1.5" d="M1643.21,-465C1656.59,-465 1673.4,-465 1689.49,-465"/>
<polygon fill="#000000" stroke="#000000" stroke-width="1.5" points="1689.91,-468.5 1699.91,-465 1689.91,-461.5 1689.91,-468.5"/>
</g>
<!-- lots_obj -->
<g id="node8" class="node">
<title>lots_obj</title>
<path fill="none" stroke="blue" stroke-width="2" d="M796.33,-248C796.33,-248 892.67,-248 892.67,-248 897.33,-248 902,-252.67 902,-257.33 902,-257.33 902,-266.67 902,-266.67 902,-271.33 897.33,-276 892.67,-276 892.67,-276 796.33,-276 796.33,-276 791.67,-276 787,-271.33 787,-266.67 787,-266.67 787,-257.33 787,-257.33 787,-252.67 791.67,-248 796.33,-248"/>
<text text-anchor="middle" x="844.5" y="-257.6" font-family="Times,serif" font-size="18.00">{source.o}</text>
</g>
<!-- lots_obj&#45;&gt;ld_mutt -->
<g id="edge1" class="edge">
<title>lots_obj&#45;&gt;ld_mutt</title>
<path fill="none" stroke="#000000" stroke-width="1.5" d="M902.43,-262.6C1017.47,-265.7 1283.9,-282.5 1486.5,-369 1528.61,-386.98 1569.63,-421.46 1593.6,-443.83"/>
<polygon fill="#000000" stroke="#000000" stroke-width="1.5" points="1591.39,-446.56 1601.05,-450.91 1596.21,-441.49 1591.39,-446.56"/>
</g>
<!-- generated&#45;&gt;lots_obj -->
<g id="edge24" class="edge">
<title>generated&#45;&gt;lots_obj</title>
<path fill="none" stroke="#000000" stroke-width="1.5" d="M538.34,-207.03C607.17,-219.43 709.88,-237.93 776.78,-249.98"/>
<polygon fill="#000000" stroke="#000000" stroke-width="1.5" points="776.33,-253.46 786.79,-251.79 777.57,-246.57 776.33,-253.46"/>
<text text-anchor="middle" x="576.5" y="-218.8" font-family="Times,serif" font-size="14.00">gcc</text>
</g>
<!-- hcachever_h -->
<g id="node22" class="node">
<title>hcachever_h</title>
<path fill="none" stroke="blue" stroke-width="2" d="M791.33,-583C791.33,-583 897.67,-583 897.67,-583 902.33,-583 907,-587.67 907,-592.33 907,-592.33 907,-601.67 907,-601.67 907,-606.33 902.33,-611 897.67,-611 897.67,-611 791.33,-611 791.33,-611 786.67,-611 782,-606.33 782,-601.67 782,-601.67 782,-592.33 782,-592.33 782,-587.67 786.67,-583 791.33,-583"/>
<text text-anchor="middle" x="844.5" y="-592.6" font-family="Times,serif" font-size="18.00">hcachever.h</text>
</g>
<!-- hcachever_sh&#45;&gt;hcachever_h -->
<g id="edge16" class="edge">
<title>hcachever_sh&#45;&gt;hcachever_h</title>
<path fill="none" stroke="#000000" stroke-width="1.5" d="M550.72,-596.22C617.23,-596.4 708.8,-596.64 771.74,-596.81"/>
<polygon fill="#000000" stroke="#000000" stroke-width="1.5" points="771.96,-600.31 781.97,-596.84 771.98,-593.31 771.96,-600.31"/>
</g>
<!-- compulsory&#45;&gt;lots_obj -->
<g id="edge21" class="edge">
<title>compulsory&#45;&gt;lots_obj</title>
<path fill="none" stroke="#000000" stroke-width="1.5" d="M506.04,-143.11C575.5,-167.58 718.14,-217.83 793.81,-244.49"/>
<polygon fill="#000000" stroke="#000000" stroke-width="1.5" points="792.99,-247.92 803.59,-247.94 795.32,-241.31 792.99,-247.92"/>
<text text-anchor="middle" x="576.5" y="-175.8" font-family="Times,serif" font-size="14.00">gcc</text>
</g>
<!-- xgettext -->
<g id="node29" class="node">
<title>xgettext</title>
<polygon fill="none" stroke="blue" stroke-width="2" points="890.5,-66 798.5,-66 798.5,-38 890.5,-38 890.5,-66"/>
<text text-anchor="middle" x="844.5" y="-47.6" font-family="Times,serif" font-size="18.00">xgettext</text>
</g>
<!-- compulsory&#45;&gt;xgettext -->
<g id="edge26" class="edge">
<title>compulsory&#45;&gt;xgettext</title>
<path fill="none" stroke="#000000" stroke-width="1.5" d="M521.71,-114.95C545.6,-109.11 573.85,-102.43 599.5,-97 664.15,-83.3 738.96,-69.86 788.52,-61.28"/>
<polygon fill="#000000" stroke="#000000" stroke-width="1.5" points="789.13,-64.73 798.39,-59.58 787.94,-57.83 789.13,-64.73"/>
</g>
<!-- lots_lib_c -->
<g id="node13" class="node">
<title>lots_lib_c</title>
<path fill="none" stroke="blue" stroke-width="2" d="M814.83,-506C814.83,-506 874.17,-506 874.17,-506 878.83,-506 883.5,-510.67 883.5,-515.33 883.5,-515.33 883.5,-524.67 883.5,-524.67 883.5,-529.33 878.83,-534 874.17,-534 874.17,-534 814.83,-534 814.83,-534 810.17,-534 805.5,-529.33 805.5,-524.67 805.5,-524.67 805.5,-515.33 805.5,-515.33 805.5,-510.67 810.17,-506 814.83,-506"/>
<text text-anchor="middle" x="844.5" y="-515.6" font-family="Times,serif" font-size="18.00">{lib.c}</text>
</g>
<!-- lots_lib_o -->
<g id="node14" class="node">
<title>lots_lib_o</title>
<path fill="none" stroke="blue" stroke-width="2" d="M1007.33,-506C1007.33,-506 1067.67,-506 1067.67,-506 1072.33,-506 1077,-510.67 1077,-515.33 1077,-515.33 1077,-524.67 1077,-524.67 1077,-529.33 1072.33,-534 1067.67,-534 1067.67,-534 1007.33,-534 1007.33,-534 1002.67,-534 998,-529.33 998,-524.67 998,-524.67 998,-515.33 998,-515.33 998,-510.67 1002.67,-506 1007.33,-506"/>
<text text-anchor="middle" x="1037.5" y="-515.6" font-family="Times,serif" font-size="18.00">{lib.o}</text>
</g>
<!-- lots_lib_c&#45;&gt;lots_lib_o -->
<g id="edge12" class="edge">
<title>lots_lib_c&#45;&gt;lots_lib_o</title>
<path fill="none" stroke="#000000" stroke-width="1.5" d="M883.69,-520C913.56,-520 955.28,-520 987.59,-520"/>
<polygon fill="#000000" stroke="#000000" stroke-width="1.5" points="987.72,-523.5 997.72,-520 987.72,-516.5 987.72,-523.5"/>
<text text-anchor="middle" x="948.5" y="-523.8" font-family="Times,serif" font-size="14.00">gcc</text>
</g>
<!-- lib_a -->
<g id="node15" class="node">
<title>lib_a</title>
<path fill="none" stroke="blue" stroke-width="2" d="M1232.83,-495C1232.83,-495 1270.17,-495 1270.17,-495 1274.83,-495 1279.5,-499.67 1279.5,-504.33 1279.5,-504.33 1279.5,-513.67 1279.5,-513.67 1279.5,-518.33 1274.83,-523 1270.17,-523 1270.17,-523 1232.83,-523 1232.83,-523 1228.17,-523 1223.5,-518.33 1223.5,-513.67 1223.5,-513.67 1223.5,-504.33 1223.5,-504.33 1223.5,-499.67 1228.17,-495 1232.83,-495"/>
<text text-anchor="middle" x="1251.5" y="-504.6" font-family="Times,serif" font-size="18.00">lib.a</text>
</g>
<!-- lots_lib_o&#45;&gt;lib_a -->
<g id="edge13" class="edge">
<title>lots_lib_o&#45;&gt;lib_a</title>
<path fill="none" stroke="#000000" stroke-width="1.5" d="M1077.38,-517.98C1116.06,-515.98 1175,-512.92 1213.14,-510.94"/>
<polygon fill="#000000" stroke="#000000" stroke-width="1.5" points="1213.5,-514.42 1223.31,-510.41 1213.14,-507.43 1213.5,-514.42"/>
<text text-anchor="middle" x="1150" y="-518.8" font-family="Times,serif" font-size="14.00">ar</text>
</g>
<!-- lib_a&#45;&gt;ld_mutt -->
<g id="edge32" class="edge">
<title>lib_a&#45;&gt;ld_mutt</title>
<path fill="none" stroke="#000000" stroke-width="1.5" d="M1279.75,-505.69C1344.25,-497.86 1506.3,-478.19 1578.87,-469.38"/>
<polygon fill="#000000" stroke="#000000" stroke-width="1.5" points="1579.4,-472.85 1588.91,-468.17 1578.56,-465.9 1579.4,-472.85"/>
</g>
<!-- lots_backend_c -->
<g id="node16" class="node">
<title>lots_backend_c</title>
<path fill="none" stroke="blue" stroke-width="2" d="M788.33,-408C788.33,-408 900.67,-408 900.67,-408 905.33,-408 910,-412.67 910,-417.33 910,-417.33 910,-426.67 910,-426.67 910,-431.33 905.33,-436 900.67,-436 900.67,-436 788.33,-436 788.33,-436 783.67,-436 779,-431.33 779,-426.67 779,-426.67 779,-417.33 779,-417.33 779,-412.67 783.67,-408 788.33,-408"/>
<text text-anchor="middle" x="844.5" y="-417.6" font-family="Times,serif" font-size="18.00">{backend.c}</text>
</g>
<!-- lots_backend_o -->
<g id="node17" class="node">
<title>lots_backend_o</title>
<path fill="none" stroke="blue" stroke-width="2" d="M981.33,-408C981.33,-408 1093.67,-408 1093.67,-408 1098.33,-408 1103,-412.67 1103,-417.33 1103,-417.33 1103,-426.67 1103,-426.67 1103,-431.33 1098.33,-436 1093.67,-436 1093.67,-436 981.33,-436 981.33,-436 976.67,-436 972,-431.33 972,-426.67 972,-426.67 972,-417.33 972,-417.33 972,-412.67 976.67,-408 981.33,-408"/>
<text text-anchor="middle" x="1037.5" y="-417.6" font-family="Times,serif" font-size="18.00">{backend.o}</text>
</g>
<!-- lots_backend_c&#45;&gt;lots_backend_o -->
<g id="edge14" class="edge">
<title>lots_backend_c&#45;&gt;lots_backend_o</title>
<path fill="none" stroke="#000000" stroke-width="1.5" d="M910.16,-422C926.65,-422 944.52,-422 961.48,-422"/>
<polygon fill="#000000" stroke="#000000" stroke-width="1.5" points="961.9,-425.5 971.9,-422 961.9,-418.5 961.9,-425.5"/>
<text text-anchor="middle" x="948.5" y="-425.8" font-family="Times,serif" font-size="14.00">gcc</text>
</g>
<!-- backend_a -->
<g id="node18" class="node">
<title>backend_a</title>
<path fill="none" stroke="blue" stroke-width="2" d="M1206.33,-408C1206.33,-408 1296.67,-408 1296.67,-408 1301.33,-408 1306,-412.67 1306,-417.33 1306,-417.33 1306,-426.67 1306,-426.67 1306,-431.33 1301.33,-436 1296.67,-436 1296.67,-436 1206.33,-436 1206.33,-436 1201.67,-436 1197,-431.33 1197,-426.67 1197,-426.67 1197,-417.33 1197,-417.33 1197,-412.67 1201.67,-408 1206.33,-408"/>
<text text-anchor="middle" x="1251.5" y="-417.6" font-family="Times,serif" font-size="18.00">backend.a</text>
</g>
<!-- lots_backend_o&#45;&gt;backend_a -->
<g id="edge15" class="edge">
<title>lots_backend_o&#45;&gt;backend_a</title>
<path fill="none" stroke="#000000" stroke-width="1.5" d="M1103.26,-422C1129.7,-422 1160.21,-422 1186.56,-422"/>
<polygon fill="#000000" stroke="#000000" stroke-width="1.5" points="1186.82,-425.5 1196.82,-422 1186.82,-418.5 1186.82,-425.5"/>
<text text-anchor="middle" x="1150" y="-425.8" font-family="Times,serif" font-size="14.00">ar</text>
</g>
<!-- backend_a&#45;&gt;ld_mutt -->
<g id="edge33" class="edge">
<title>backend_a&#45;&gt;ld_mutt</title>
<path fill="none" stroke="#000000" stroke-width="1.5" d="M1306.38,-428.39C1381.3,-437.28 1514.92,-453.13 1578.91,-460.72"/>
<polygon fill="#000000" stroke="#000000" stroke-width="1.5" points="1578.58,-464.2 1588.92,-461.91 1579.41,-457.25 1578.58,-464.2"/>
</g>
<!-- lots_hcache_c -->
<g id="node19" class="node">
<title>lots_hcache_c</title>
<path fill="none" stroke="blue" stroke-width="2" d="M794.83,-713C794.83,-713 894.17,-713 894.17,-713 898.83,-713 903.5,-717.67 903.5,-722.33 903.5,-722.33 903.5,-731.67 903.5,-731.67 903.5,-736.33 898.83,-741 894.17,-741 894.17,-741 794.83,-741 794.83,-741 790.17,-741 785.5,-736.33 785.5,-731.67 785.5,-731.67 785.5,-722.33 785.5,-722.33 785.5,-717.67 790.17,-713 794.83,-713"/>
<text text-anchor="middle" x="844.5" y="-722.6" font-family="Times,serif" font-size="18.00">{hcache.c}</text>
</g>
<!-- lots_hcache_o -->
<g id="node20" class="node">
<title>lots_hcache_o</title>
<path fill="none" stroke="blue" stroke-width="2" d="M987.33,-628C987.33,-628 1087.67,-628 1087.67,-628 1092.33,-628 1097,-632.67 1097,-637.33 1097,-637.33 1097,-646.67 1097,-646.67 1097,-651.33 1092.33,-656 1087.67,-656 1087.67,-656 987.33,-656 987.33,-656 982.67,-656 978,-651.33 978,-646.67 978,-646.67 978,-637.33 978,-637.33 978,-632.67 982.67,-628 987.33,-628"/>
<text text-anchor="middle" x="1037.5" y="-637.6" font-family="Times,serif" font-size="18.00">{hcache.o}</text>
</g>
<!-- lots_hcache_c&#45;&gt;lots_hcache_o -->
<g id="edge19" class="edge">
<title>lots_hcache_c&#45;&gt;lots_hcache_o</title>
<path fill="none" stroke="#000000" stroke-width="1.5" d="M881.71,-712.97C895.35,-707.54 910.97,-701.15 925,-695 949.79,-684.13 977.26,-671.08 998.73,-660.66"/>
<polygon fill="#000000" stroke="#000000" stroke-width="1.5" points="1000.39,-663.74 1007.84,-656.21 997.32,-657.45 1000.39,-663.74"/>
<text text-anchor="middle" x="948.5" y="-692.8" font-family="Times,serif" font-size="14.00">gcc</text>
</g>
<!-- hcache_a -->
<g id="node23" class="node">
<title>hcache_a</title>
<path fill="none" stroke="blue" stroke-width="2" d="M1212.83,-601C1212.83,-601 1290.17,-601 1290.17,-601 1294.83,-601 1299.5,-605.67 1299.5,-610.33 1299.5,-610.33 1299.5,-619.67 1299.5,-619.67 1299.5,-624.33 1294.83,-629 1290.17,-629 1290.17,-629 1212.83,-629 1212.83,-629 1208.17,-629 1203.5,-624.33 1203.5,-619.67 1203.5,-619.67 1203.5,-610.33 1203.5,-610.33 1203.5,-605.67 1208.17,-601 1212.83,-601"/>
<text text-anchor="middle" x="1251.5" y="-610.6" font-family="Times,serif" font-size="18.00">hcache.a</text>
</g>
<!-- lots_hcache_o&#45;&gt;hcache_a -->
<g id="edge20" class="edge">
<title>lots_hcache_o&#45;&gt;hcache_a</title>
<path fill="none" stroke="#000000" stroke-width="1.5" d="M1097.27,-634.51C1127.2,-630.7 1163.43,-626.09 1193.16,-622.3"/>
<polygon fill="#000000" stroke="#000000" stroke-width="1.5" points="1193.9,-625.74 1203.37,-621 1193.01,-618.79 1193.9,-625.74"/>
<text text-anchor="middle" x="1150" y="-634.8" font-family="Times,serif" font-size="14.00">ar</text>
</g>
<!-- backends_c -->
<g id="node21" class="node">
<title>backends_c</title>
<path fill="none" stroke="blue" stroke-width="2" d="M773.33,-648C773.33,-648 915.67,-648 915.67,-648 920.33,-648 925,-652.67 925,-657.33 925,-657.33 925,-666.67 925,-666.67 925,-671.33 920.33,-676 915.67,-676 915.67,-676 773.33,-676 773.33,-676 768.67,-676 764,-671.33 764,-666.67 764,-666.67 764,-657.33 764,-657.33 764,-652.67 768.67,-648 773.33,-648"/>
<text text-anchor="start" x="772" y="-658.6" font-family="Times,serif" font-size="18.00">{backends.c} </text>
<text text-anchor="start" x="902" y="-658.6" font-family="Times,serif" font-size="18.00" fill="green">★</text>
</g>
<!-- backends_c&#45;&gt;lots_hcache_o -->
<g id="edge18" class="edge">
<title>backends_c&#45;&gt;lots_hcache_o</title>
<path fill="none" stroke="#000000" stroke-width="1.5" d="M925.12,-653.66C939.37,-652.17 954.1,-650.63 968.01,-649.17"/>
<polygon fill="#000000" stroke="#000000" stroke-width="1.5" points="968.38,-652.65 977.96,-648.13 967.65,-645.69 968.38,-652.65"/>
<text text-anchor="middle" x="948.5" y="-655.8" font-family="Times,serif" font-size="14.00">gcc</text>
</g>
<!-- hcachever_h&#45;&gt;lots_hcache_o -->
<g id="edge17" class="edge">
<title>hcachever_h&#45;&gt;lots_hcache_o</title>
<path fill="none" stroke="#000000" stroke-width="1.5" d="M905.15,-611.05C925.09,-615.75 947.47,-621.02 968.03,-625.87"/>
<polygon fill="#000000" stroke="#000000" stroke-width="1.5" points="967.42,-629.32 977.96,-628.21 969.03,-622.51 967.42,-629.32"/>
</g>
<!-- hcache_a&#45;&gt;ld_mutt -->
<g id="edge31" class="edge">
<title>hcache_a&#45;&gt;ld_mutt</title>
<path fill="none" stroke="#000000" stroke-width="1.5" d="M1299.53,-614.25C1348.4,-611.84 1426.05,-603.36 1486.5,-575 1531.6,-553.84 1573.36,-512.42 1596.39,-486.88"/>
<polygon fill="#000000" stroke="#000000" stroke-width="1.5" points="1599.19,-489.01 1603.2,-479.2 1593.95,-484.37 1599.19,-489.01"/>
</g>
<!-- conditional -->
<g id="node24" class="node">
<title>conditional</title>
<path fill="none" stroke="blue" stroke-width="2" d="M386.33,-245C386.33,-245 543.67,-245 543.67,-245 548.33,-245 553,-249.67 553,-254.33 553,-254.33 553,-263.67 553,-263.67 553,-268.33 548.33,-273 543.67,-273 543.67,-273 386.33,-273 386.33,-273 381.67,-273 377,-268.33 377,-263.67 377,-263.67 377,-254.33 377,-254.33 377,-249.67 381.67,-245 386.33,-245"/>
<text text-anchor="start" x="385" y="-255.6" font-family="Times,serif" font-size="18.00">{conditional.c} </text>
<text text-anchor="start" x="530" y="-255.6" font-family="Times,serif" font-size="18.00" fill="green">★</text>
</g>
<!-- conditional&#45;&gt;lots_obj -->
<g id="edge22" class="edge">
<title>conditional&#45;&gt;lots_obj</title>
<path fill="none" stroke="#000000" stroke-width="1.5" d="M553.08,-259.69C621.15,-260.23 714.36,-260.97 776.63,-261.47"/>
<polygon fill="#000000" stroke="#000000" stroke-width="1.5" points="776.71,-264.97 786.74,-261.55 776.77,-257.97 776.71,-264.97"/>
<text text-anchor="middle" x="576.5" y="-262.8" font-family="Times,serif" font-size="14.00">gcc</text>
</g>
<!-- environmental -->
<g id="node25" class="node">
<title>environmental</title>
<path fill="none" stroke="blue" stroke-width="2" d="M386.83,-310C386.83,-310 543.17,-310 543.17,-310 547.83,-310 552.5,-314.67 552.5,-319.33 552.5,-319.33 552.5,-328.67 552.5,-328.67 552.5,-333.33 547.83,-338 543.17,-338 543.17,-338 386.83,-338 386.83,-338 382.17,-338 377.5,-333.33 377.5,-328.67 377.5,-328.67 377.5,-319.33 377.5,-319.33 377.5,-314.67 382.17,-310 386.83,-310"/>
<text text-anchor="middle" x="465" y="-319.6" font-family="Times,serif" font-size="18.00">{environmental.c}</text>
</g>
<!-- environmental&#45;&gt;lots_obj -->
<g id="edge23" class="edge">
<title>environmental&#45;&gt;lots_obj</title>
<path fill="none" stroke="#000000" stroke-width="1.5" d="M551.66,-309.93C619.87,-298.73 713.98,-283.27 776.69,-272.97"/>
<polygon fill="#000000" stroke="#000000" stroke-width="1.5" points="777.57,-276.38 786.87,-271.3 776.43,-269.47 777.57,-276.38"/>
<text text-anchor="middle" x="576.5" y="-310.8" font-family="Times,serif" font-size="14.00">gcc</text>
</g>
<!-- lots_mo -->
<g id="node26" class="node">
<title>lots_mo</title>
<path fill="none" stroke="blue" stroke-width="2" d="M1569.33,-38C1569.33,-38 1662.67,-38 1662.67,-38 1667.33,-38 1672,-42.67 1672,-47.33 1672,-47.33 1672,-56.67 1672,-56.67 1672,-61.33 1667.33,-66 1662.67,-66 1662.67,-66 1569.33,-66 1569.33,-66 1564.67,-66 1560,-61.33 1560,-56.67 1560,-56.67 1560,-47.33 1560,-47.33 1560,-42.67 1564.67,-38 1569.33,-38"/>
<text text-anchor="middle" x="1616" y="-47.6" font-family="Times,serif" font-size="18.00">{lang.mo}</text>
</g>
<!-- lots_po -->
<g id="node27" class="node">
<title>lots_po</title>
<path fill="none" stroke="blue" stroke-width="2" d="M1207.83,-38C1207.83,-38 1295.17,-38 1295.17,-38 1299.83,-38 1304.5,-42.67 1304.5,-47.33 1304.5,-47.33 1304.5,-56.67 1304.5,-56.67 1304.5,-61.33 1299.83,-66 1295.17,-66 1295.17,-66 1207.83,-66 1207.83,-66 1203.17,-66 1198.5,-61.33 1198.5,-56.67 1198.5,-56.67 1198.5,-47.33 1198.5,-47.33 1198.5,-42.67 1203.17,-38 1207.83,-38"/>
<text text-anchor="middle" x="1251.5" y="-47.6" font-family="Times,serif" font-size="18.00">{lang.po}</text>
</g>
<!-- lots_po&#45;&gt;lots_mo -->
<g id="edge29" class="edge">
<title>lots_po&#45;&gt;lots_mo</title>
<path fill="none" stroke="#000000" stroke-width="1.5" d="M1304.82,-52C1369.48,-52 1479.53,-52 1549.67,-52"/>
<polygon fill="#000000" stroke="#000000" stroke-width="1.5" points="1549.72,-55.5 1559.72,-52 1549.72,-48.5 1549.72,-55.5"/>
<text text-anchor="middle" x="1521.5" y="-55.8" font-family="Times,serif" font-size="14.00">msgfmt</text>
</g>
<!-- neomutt_pot -->
<g id="node28" class="node">
<title>neomutt_pot</title>
<path fill="none" stroke="blue" stroke-width="2" d="M982.83,-38C982.83,-38 1092.17,-38 1092.17,-38 1096.83,-38 1101.5,-42.67 1101.5,-47.33 1101.5,-47.33 1101.5,-56.67 1101.5,-56.67 1101.5,-61.33 1096.83,-66 1092.17,-66 1092.17,-66 982.83,-66 982.83,-66 978.17,-66 973.5,-61.33 973.5,-56.67 973.5,-56.67 973.5,-47.33 973.5,-47.33 973.5,-42.67 978.17,-38 982.83,-38"/>
<text text-anchor="middle" x="1037.5" y="-47.6" font-family="Times,serif" font-size="18.00">neomutt.pot</text>
</g>
<!-- neomutt_pot&#45;&gt;lots_po -->
<g id="edge28" class="edge">
<title>neomutt_pot&#45;&gt;lots_po</title>
<path fill="none" stroke="#000000" stroke-width="1.5" d="M1101.53,-52C1128.91,-52 1160.9,-52 1188.2,-52"/>
<polygon fill="#000000" stroke="#000000" stroke-width="1.5" points="1188.41,-55.5 1198.41,-52 1188.41,-48.5 1188.41,-55.5"/>
<text text-anchor="middle" x="1150" y="-55.8" font-family="Times,serif" font-size="14.00">translator</text>
</g>
<!-- xgettext&#45;&gt;neomutt_pot -->
<g id="edge27" class="edge">
<title>xgettext&#45;&gt;neomutt_pot</title>
<path fill="none" stroke="#000000" stroke-width="1.5" d="M890.76,-52C912.39,-52 938.81,-52 963.19,-52"/>
<polygon fill="#000000" stroke="#000000" stroke-width="1.5" points="963.5,-55.5 973.5,-52 963.5,-48.5 963.5,-55.5"/>
</g>
<!-- POTFILES -->
<g id="node30" class="node">
<title>POTFILES</title>
<path fill="none" stroke="blue" stroke-width="2" d="M417.83,-38C417.83,-38 512.17,-38 512.17,-38 516.83,-38 521.5,-42.67 521.5,-47.33 521.5,-47.33 521.5,-56.67 521.5,-56.67 521.5,-61.33 516.83,-66 512.17,-66 512.17,-66 417.83,-66 417.83,-66 413.17,-66 408.5,-61.33 408.5,-56.67 408.5,-56.67 408.5,-47.33 408.5,-47.33 408.5,-42.67 413.17,-38 417.83,-38"/>
<text text-anchor="middle" x="465" y="-47.6" font-family="Times,serif" font-size="18.00">POTFILES</text>
</g>
<!-- POTFILES&#45;&gt;xgettext -->
<g id="edge25" class="edge">
<title>POTFILES&#45;&gt;xgettext</title>
<path fill="none" stroke="#000000" stroke-width="1.5" d="M521.7,-52C593.25,-52 716.68,-52 788.09,-52"/>
<polygon fill="#000000" stroke="#000000" stroke-width="1.5" points="788.23,-55.5 798.23,-52 788.23,-48.5 788.23,-55.5"/>
</g>
<!-- pgpewrap_src -->
<g id="node31" class="node">
<title>pgpewrap_src</title>
<path fill="none" stroke="blue" stroke-width="2" d="M25.33,-564C25.33,-564 128.67,-564 128.67,-564 133.33,-564 138,-568.67 138,-573.33 138,-573.33 138,-582.67 138,-582.67 138,-587.33 133.33,-592 128.67,-592 128.67,-592 25.33,-592 25.33,-592 20.67,-592 16,-587.33 16,-582.67 16,-582.67 16,-573.33 16,-573.33 16,-568.67 20.67,-564 25.33,-564"/>
<text text-anchor="middle" x="77" y="-573.6" font-family="Times,serif" font-size="18.00">pgpewrap.c</text>
</g>
<!-- pgpewrap -->
<g id="node32" class="node">
<title>pgpewrap</title>
<path fill="none" stroke="blue" stroke-width="2" d="M229.83,-564C229.83,-564 318.17,-564 318.17,-564 322.83,-564 327.5,-568.67 327.5,-573.33 327.5,-573.33 327.5,-582.67 327.5,-582.67 327.5,-587.33 322.83,-592 318.17,-592 318.17,-592 229.83,-592 229.83,-592 225.17,-592 220.5,-587.33 220.5,-582.67 220.5,-582.67 220.5,-573.33 220.5,-573.33 220.5,-568.67 225.17,-564 229.83,-564"/>
<text text-anchor="middle" x="274" y="-573.6" font-family="Times,serif" font-size="18.00">pgpewrap</text>
</g>
<!-- pgpewrap_src&#45;&gt;pgpewrap -->
<g id="edge30" class="edge">
<title>pgpewrap_src&#45;&gt;pgpewrap</title>
<path fill="none" stroke="#000000" stroke-width="1.5" d="M138.1,-578C161.01,-578 187.16,-578 210.3,-578"/>
<polygon fill="#000000" stroke="#000000" stroke-width="1.5" points="210.36,-581.5 220.36,-578 210.36,-574.5 210.36,-581.5"/>
<text text-anchor="middle" x="175.5" y="-581.8" font-family="Times,serif" font-size="14.00">gcc</text>
</g>
</g>
</svg>
