<?xml version="1.0" encoding="UTF-8" standalone="no"?>
<!DOCTYPE svg PUBLIC "-//W3C//DTD SVG 1.1//EN"
 "http://www.w3.org/Graphics/SVG/1.1/DTD/svg11.dtd">
<!-- Generated by graphviz version 2.40.1 (0)
 -->
<!-- Title: build Pages: 1 -->
<svg width="1665pt" height="892pt"
 viewBox="0.00 0.00 1664.50 892.00" xmlns="http://www.w3.org/2000/svg" xmlns:xlink="http://www.w3.org/1999/xlink">
<g id="graph0" class="graph" transform="scale(1 1) rotate(0) translate(4 888)">
<title>build</title>
<polygon fill="#ffffff" stroke="transparent" points="-4,4 -4,-888 1660.5,-888 1660.5,4 -4,4"/>
<g id="clust1" class="cluster">
<title>cluster_libraries</title>
<polygon fill="none" stroke="#ff0000" points="702.5,-786 702.5,-876 1378,-876 1378,-786 702.5,-786"/>
<text text-anchor="middle" x="1040.25" y="-860.8" font-family="Times,serif" font-size="14.00" fill="#ff0000">LIBRARIES: config, conn, email, mutt, ncrypt</text>
</g>
<g id="clust2" class="cluster">
<title>cluster_backends</title>
<polygon fill="none" stroke="#ff0000" points="676,-688 676,-778 1404.5,-778 1404.5,-688 676,-688"/>
<text text-anchor="middle" x="1040.25" y="-762.8" font-family="Times,serif" font-size="14.00" fill="#ff0000">MAIL BACKENDS: imap, maildir, mbox, nntp, notmuch, pop</text>
</g>
<g id="clust3" class="cluster">
<title>cluster_hcache</title>
<polygon fill="none" stroke="#ff0000" points="348.5,-465 348.5,-680 1398,-680 1398,-465 348.5,-465"/>
<text text-anchor="middle" x="873.25" y="-664.8" font-family="Times,serif" font-size="14.00" fill="#ff0000">HCACHE</text>
</g>
<g id="clust4" class="cluster">
<title>cluster_source</title>
<polygon fill="none" stroke="#ff0000" points="345.5,-106 345.5,-457 815,-457 815,-106 345.5,-106"/>
<text text-anchor="middle" x="580.25" y="-441.8" font-family="Times,serif" font-size="14.00" fill="#ff0000">SOURCE</text>
</g>
<g id="clust5" class="cluster">
<title>cluster_messages</title>
<polygon fill="none" stroke="#ff0000" points="186,-8 186,-98 1544.5,-98 1544.5,-8 186,-8"/>
<text text-anchor="middle" x="865.25" y="-82.8" font-family="Times,serif" font-size="14.00" fill="#ff0000">MESSAGES</text>
</g>
<g id="clust6" class="cluster">
<title>cluster_tools</title>
<polygon fill="none" stroke="#ff0000" points="8,-737 8,-827 503.5,-827 503.5,-737 8,-737"/>
<text text-anchor="middle" x="255.75" y="-811.8" font-family="Times,serif" font-size="14.00" fill="#ff0000">TOOLS</text>
</g>
<!-- config_h -->
<g id="node1" class="node">
<title>config_h</title>
<path fill="none" stroke="#0000ff" stroke-width="2" d="M215.3333,-400C215.3333,-400 285.6667,-400 285.6667,-400 290.3333,-400 295,-404.6667 295,-409.3333 295,-409.3333 295,-418.6667 295,-418.6667 295,-423.3333 290.3333,-428 285.6667,-428 285.6667,-428 215.3333,-428 215.3333,-428 210.6667,-428 206,-423.3333 206,-418.6667 206,-418.6667 206,-409.3333 206,-409.3333 206,-404.6667 210.6667,-400 215.3333,-400"/>
<text text-anchor="middle" x="250.5" y="-409.6" font-family="Times,serif" font-size="18.00" fill="#000000">config.h</text>
</g>
<!-- generated -->
<g id="node10" class="node">
<title>generated</title>
<path fill="none" stroke="#0000ff" stroke-width="2" d="M378.3333,-321C378.3333,-321 505.6667,-321 505.6667,-321 510.3333,-321 515,-325.6667 515,-330.3333 515,-330.3333 515,-339.6667 515,-339.6667 515,-344.3333 510.3333,-349 505.6667,-349 505.6667,-349 378.3333,-349 378.3333,-349 373.6667,-349 369,-344.3333 369,-339.6667 369,-339.6667 369,-330.3333 369,-330.3333 369,-325.6667 373.6667,-321 378.3333,-321"/>
<text text-anchor="middle" x="442" y="-330.6" font-family="Times,serif" font-size="18.00" fill="#000000">{generated.c}</text>
</g>
<!-- config_h&#45;&gt;generated -->
<g id="edge4" class="edge">
<title>config_h&#45;&gt;generated</title>
<path fill="none" stroke="#000000" stroke-width="1.5" stroke-dasharray="5,2" d="M284.7364,-399.8764C316.5976,-386.7326 364.2173,-367.0879 398.705,-352.8606"/>
<polygon fill="#000000" stroke="#000000" stroke-width="1.5" points="400.1505,-356.0505 408.06,-349.0013 397.481,-349.5795 400.1505,-356.0505"/>
</g>
<!-- hcachever_sh -->
<g id="node11" class="node">
<title>hcachever_sh</title>
<polygon fill="none" stroke="#00ff00" stroke-width="2" points="527.5,-501 356.5,-501 356.5,-473 527.5,-473 527.5,-501"/>
<text text-anchor="start" x="364.5" y="-483.6" font-family="Times,serif" font-size="18.00" fill="#000000">hcachever.sh </text>
<text text-anchor="start" x="487.5" y="-483.6" font-family="Times,serif" font-size="18.00" fill="#ff0000">●</text>
<text text-anchor="start" x="503.5" y="-483.6" font-family="Times,serif" font-size="18.00" fill="#00ff00">★</text>
</g>
<!-- config_h&#45;&gt;hcachever_sh -->
<g id="edge9" class="edge">
<title>config_h&#45;&gt;hcachever_sh</title>
<path fill="none" stroke="#000000" stroke-width="1.5" d="M271.9126,-428.0529C290.6312,-439.7575 318.9043,-456.0637 345.5,-466 349.3848,-467.4514 353.397,-468.816 357.4778,-470.0972"/>
<polygon fill="#000000" stroke="#000000" stroke-width="1.5" points="356.5146,-473.4622 367.0965,-472.9372 358.4969,-466.7487 356.5146,-473.4622"/>
</g>
<!-- conststrings_c -->
<g id="node2" class="node">
<title>conststrings_c</title>
<path fill="none" stroke="#0000ff" stroke-width="2" d="M188.3333,-335C188.3333,-335 312.6667,-335 312.6667,-335 317.3333,-335 322,-339.6667 322,-344.3333 322,-344.3333 322,-353.6667 322,-353.6667 322,-358.3333 317.3333,-363 312.6667,-363 312.6667,-363 188.3333,-363 188.3333,-363 183.6667,-363 179,-358.3333 179,-353.6667 179,-353.6667 179,-344.3333 179,-344.3333 179,-339.6667 183.6667,-335 188.3333,-335"/>
<text text-anchor="middle" x="250.5" y="-344.6" font-family="Times,serif" font-size="18.00" fill="#000000">conststrings.c</text>
</g>
<!-- conststrings_c&#45;&gt;generated -->
<g id="edge6" class="edge">
<title>conststrings_c&#45;&gt;generated</title>
<path fill="none" stroke="#000000" stroke-width="1.5" stroke-dasharray="5,2" d="M322.0799,-343.767C334.0314,-342.8933 346.5205,-341.9802 358.734,-341.0873"/>
<polygon fill="#000000" stroke="#000000" stroke-width="1.5" points="359.1924,-344.5633 368.9105,-340.3434 358.6819,-337.5819 359.1924,-344.5633"/>
</g>
<!-- gitver_c -->
<g id="node3" class="node">
<title>gitver_c</title>
<path fill="none" stroke="#0000ff" stroke-width="2" d="M217.8333,-205C217.8333,-205 283.1667,-205 283.1667,-205 287.8333,-205 292.5,-209.6667 292.5,-214.3333 292.5,-214.3333 292.5,-223.6667 292.5,-223.6667 292.5,-228.3333 287.8333,-233 283.1667,-233 283.1667,-233 217.8333,-233 217.8333,-233 213.1667,-233 208.5,-228.3333 208.5,-223.6667 208.5,-223.6667 208.5,-214.3333 208.5,-214.3333 208.5,-209.6667 213.1667,-205 217.8333,-205"/>
<text text-anchor="middle" x="250.5" y="-214.6" font-family="Times,serif" font-size="18.00" fill="#000000">gitver.c</text>
</g>
<!-- gitver_c&#45;&gt;generated -->
<g id="edge8" class="edge">
<title>gitver_c&#45;&gt;generated</title>
<path fill="none" stroke="#000000" stroke-width="1.5" stroke-dasharray="5,2" d="M288.712,-233.0368C300.8944,-238.2303 314.1491,-244.6657 325.5,-252 335.5444,-258.4902 336.0732,-262.6415 345.5,-270 366.3938,-286.3095 391.222,-302.9769 410.4617,-315.3503"/>
<polygon fill="#000000" stroke="#000000" stroke-width="1.5" points="408.8311,-318.4615 419.1445,-320.8875 412.595,-312.5595 408.8311,-318.4615"/>
</g>
<!-- mutt_h -->
<g id="node4" class="node">
<title>mutt_h</title>
<path fill="none" stroke="#0000ff" stroke-width="2" d="M184.8333,-270C184.8333,-270 316.1667,-270 316.1667,-270 320.8333,-270 325.5,-274.6667 325.5,-279.3333 325.5,-279.3333 325.5,-288.6667 325.5,-288.6667 325.5,-293.3333 320.8333,-298 316.1667,-298 316.1667,-298 184.8333,-298 184.8333,-298 180.1667,-298 175.5,-293.3333 175.5,-288.6667 175.5,-288.6667 175.5,-279.3333 175.5,-279.3333 175.5,-274.6667 180.1667,-270 184.8333,-270"/>
<text text-anchor="middle" x="250.5" y="-279.6" font-family="Times,serif" font-size="18.00" fill="#000000">{hcache deps}</text>
</g>
<!-- mutt_h&#45;&gt;hcachever_sh -->
<g id="edge10" class="edge">
<title>mutt_h&#45;&gt;hcachever_sh</title>
<path fill="none" stroke="#000000" stroke-width="1.5" d="M301.8816,-298.1468C310.9565,-302.7953 319.429,-308.9281 325.5,-317 345.5811,-343.6992 322.8509,-441.4416 345.5,-466 346.4154,-466.9925 347.3658,-467.9439 348.3481,-468.8557"/>
<polygon fill="#000000" stroke="#000000" stroke-width="1.5" points="346.3966,-471.7703 356.4557,-475.0966 350.6664,-466.2233 346.3966,-471.7703"/>
</g>
<!-- compulsory -->
<g id="node12" class="node">
<title>compulsory</title>
<path fill="none" stroke="#0000ff" stroke-width="2" d="M372.8333,-136C372.8333,-136 511.1667,-136 511.1667,-136 515.8333,-136 520.5,-140.6667 520.5,-145.3333 520.5,-145.3333 520.5,-154.6667 520.5,-154.6667 520.5,-159.3333 515.8333,-164 511.1667,-164 511.1667,-164 372.8333,-164 372.8333,-164 368.1667,-164 363.5,-159.3333 363.5,-154.6667 363.5,-154.6667 363.5,-145.3333 363.5,-145.3333 363.5,-140.6667 368.1667,-136 372.8333,-136"/>
<text text-anchor="middle" x="442" y="-145.6" font-family="Times,serif" font-size="18.00" fill="#000000">{compulsory.c}</text>
</g>
<!-- mutt_h&#45;&gt;compulsory -->
<g id="edge11" class="edge">
<title>mutt_h&#45;&gt;compulsory</title>
<path fill="none" stroke="#000000" stroke-width="1.5" stroke-dasharray="5,2" d="M298.7063,-269.8948C308.4516,-265.3679 317.996,-259.5112 325.5,-252 341.5447,-235.9399 330.4027,-221.9537 345.5,-205 359.26,-189.548 378.4377,-177.387 396.0743,-168.4727"/>
<polygon fill="#000000" stroke="#000000" stroke-width="1.5" points="397.6354,-171.6057 405.1198,-164.1068 394.5926,-165.3016 397.6354,-171.6057"/>
</g>
<!-- dot_configure -->
<g id="node5" class="node">
<title>dot_configure</title>
<polygon fill="none" stroke="#0000ff" stroke-width="2" points="152.5,-389 1.5,-389 1.5,-361 152.5,-361 152.5,-389"/>
<text text-anchor="start" x="9.5" y="-371.6" font-family="Times,serif" font-size="18.00" fill="#000000">./configure </text>
<text text-anchor="start" x="112.5" y="-371.6" font-family="Times,serif" font-size="18.00" fill="#ff0000">●</text>
<text text-anchor="start" x="128.5" y="-371.6" font-family="Times,serif" font-size="18.00" fill="#00ff00">★</text>
</g>
<!-- dot_configure&#45;&gt;config_h -->
<g id="edge3" class="edge">
<title>dot_configure&#45;&gt;config_h</title>
<path fill="none" stroke="#000000" stroke-width="1.5" d="M139.6375,-389.0799C157.9751,-393.2019 177.8741,-397.6749 195.6856,-401.6786"/>
<polygon fill="#000000" stroke="#000000" stroke-width="1.5" points="195.3798,-405.1971 205.904,-403.9755 196.915,-398.3675 195.3798,-405.1971"/>
</g>
<!-- dot_configure&#45;&gt;conststrings_c -->
<g id="edge5" class="edge">
<title>dot_configure&#45;&gt;conststrings_c</title>
<path fill="none" stroke="#000000" stroke-width="1.5" d="M152.5949,-363.6717C157.937,-362.8711 163.3365,-362.062 168.7105,-361.2566"/>
<polygon fill="#000000" stroke="#000000" stroke-width="1.5" points="169.621,-364.6594 178.9919,-359.7159 168.5836,-357.7367 169.621,-364.6594"/>
</g>
<!-- git -->
<g id="node6" class="node">
<title>git</title>
<polygon fill="none" stroke="#0000ff" stroke-width="2" points="108.5,-233 45.5,-233 45.5,-205 108.5,-205 108.5,-233"/>
<text text-anchor="start" x="53.5" y="-215.6" font-family="Times,serif" font-size="18.00" fill="#000000">git </text>
<text text-anchor="start" x="84.5" y="-215.6" font-family="Times,serif" font-size="18.00" fill="#ff0000">●</text>
</g>
<!-- git&#45;&gt;gitver_c -->
<g id="edge7" class="edge">
<title>git&#45;&gt;gitver_c</title>
<path fill="none" stroke="#000000" stroke-width="1.5" d="M108.8226,-219C133.8505,-219 169.2405,-219 198.3882,-219"/>
<polygon fill="#000000" stroke="#000000" stroke-width="1.5" points="198.4106,-222.5001 208.4105,-219 198.4105,-215.5001 198.4106,-222.5001"/>
</g>
<!-- ld_mutt -->
<g id="node7" class="node">
<title>ld_mutt</title>
<polygon fill="none" stroke="#0000ff" stroke-width="2" points="1507.5,-668 1453.5,-668 1453.5,-640 1507.5,-640 1507.5,-668"/>
<text text-anchor="middle" x="1480.5" y="-649.6" font-family="Times,serif" font-size="18.00" fill="#000000">ld</text>
</g>
<!-- neomutt -->
<g id="node9" class="node">
<title>neomutt</title>
<path fill="none" stroke="#0000ff" stroke-width="2" d="M1573.8333,-640C1573.8333,-640 1647.1667,-640 1647.1667,-640 1651.8333,-640 1656.5,-644.6667 1656.5,-649.3333 1656.5,-649.3333 1656.5,-658.6667 1656.5,-658.6667 1656.5,-663.3333 1651.8333,-668 1647.1667,-668 1647.1667,-668 1573.8333,-668 1573.8333,-668 1569.1667,-668 1564.5,-663.3333 1564.5,-658.6667 1564.5,-658.6667 1564.5,-649.3333 1564.5,-649.3333 1564.5,-644.6667 1569.1667,-640 1573.8333,-640"/>
<text text-anchor="middle" x="1610.5" y="-649.6" font-family="Times,serif" font-size="18.00" fill="#000000">neomutt</text>
</g>
<!-- ld_mutt&#45;&gt;neomutt -->
<g id="edge2" class="edge">
<title>ld_mutt&#45;&gt;neomutt</title>
<path fill="none" stroke="#000000" stroke-width="1.5" d="M1507.7523,-654C1521.1888,-654 1537.9186,-654 1553.9507,-654"/>
<polygon fill="#000000" stroke="#000000" stroke-width="1.5" points="1554.3438,-657.5001 1564.3438,-654 1554.3437,-650.5001 1554.3438,-657.5001"/>
</g>
<!-- lots_obj -->
<g id="node8" class="node">
<title>lots_obj</title>
<path fill="none" stroke="#0000ff" stroke-width="2" d="M701.3333,-310C701.3333,-310 797.6667,-310 797.6667,-310 802.3333,-310 807,-314.6667 807,-319.3333 807,-319.3333 807,-328.6667 807,-328.6667 807,-333.3333 802.3333,-338 797.6667,-338 797.6667,-338 701.3333,-338 701.3333,-338 696.6667,-338 692,-333.3333 692,-328.6667 692,-328.6667 692,-319.3333 692,-319.3333 692,-314.6667 696.6667,-310 701.3333,-310"/>
<text text-anchor="middle" x="749.5" y="-319.6" font-family="Times,serif" font-size="18.00" fill="#000000">{source.o}</text>
</g>
<!-- lots_obj&#45;&gt;ld_mutt -->
<g id="edge1" class="edge">
<title>lots_obj&#45;&gt;ld_mutt</title>
<path fill="none" stroke="#000000" stroke-width="1.5" d="M780.3601,-338.1015C813.5227,-351.9457 868.1329,-371 917.5,-371 917.5,-371 917.5,-371 1342,-371 1399.5042,-371 1455.9745,-561.8915 1474.321,-630.1174"/>
<polygon fill="#000000" stroke="#000000" stroke-width="1.5" points="1470.9863,-631.1971 1476.9325,-639.966 1477.7525,-629.4029 1470.9863,-631.1971"/>
</g>
<!-- generated&#45;&gt;lots_obj -->
<g id="edge24" class="edge">
<title>generated&#45;&gt;lots_obj</title>
<path fill="none" stroke="#000000" stroke-width="1.5" d="M515.2632,-332.3792C565.68,-330.5757 632.177,-328.1969 681.4353,-326.4348"/>
<polygon fill="#000000" stroke="#000000" stroke-width="1.5" points="681.8044,-329.924 691.6729,-326.0686 681.5541,-322.9284 681.8044,-329.924"/>
<text text-anchor="middle" x="599.5" y="-333.8" font-family="Times,serif" font-size="14.00" fill="#000000">gcc</text>
</g>
<!-- hcachever_h -->
<g id="node22" class="node">
<title>hcachever_h</title>
<path fill="none" stroke="#0000ff" stroke-width="2" d="M696.8333,-474C696.8333,-474 802.1667,-474 802.1667,-474 806.8333,-474 811.5,-478.6667 811.5,-483.3333 811.5,-483.3333 811.5,-492.6667 811.5,-492.6667 811.5,-497.3333 806.8333,-502 802.1667,-502 802.1667,-502 696.8333,-502 696.8333,-502 692.1667,-502 687.5,-497.3333 687.5,-492.6667 687.5,-492.6667 687.5,-483.3333 687.5,-483.3333 687.5,-478.6667 692.1667,-474 696.8333,-474"/>
<text text-anchor="middle" x="749.5" y="-483.6" font-family="Times,serif" font-size="18.00" fill="#000000">hcachever.h</text>
</g>
<!-- hcachever_sh&#45;&gt;hcachever_h -->
<g id="edge16" class="edge">
<title>hcachever_sh&#45;&gt;hcachever_h</title>
<path fill="none" stroke="#000000" stroke-width="1.5" d="M527.6559,-487.2786C574.6428,-487.4314 632.2625,-487.6187 677.0026,-487.7642"/>
<polygon fill="#000000" stroke="#000000" stroke-width="1.5" points="677.2007,-491.2648 687.212,-487.7974 677.2235,-484.2648 677.2007,-491.2648"/>
</g>
<!-- compulsory&#45;&gt;lots_obj -->
<g id="edge21" class="edge">
<title>compulsory&#45;&gt;lots_obj</title>
<path fill="none" stroke="#000000" stroke-width="1.5" d="M478.9004,-164.1331C520.656,-180.78 590.0641,-210.4522 645.5,-244 674.6189,-261.6217 705.1745,-285.9253 725.5706,-303.1083"/>
<polygon fill="#000000" stroke="#000000" stroke-width="1.5" points="723.5094,-305.9501 733.3921,-309.769 728.0479,-300.6207 723.5094,-305.9501"/>
<text text-anchor="middle" x="599.5" y="-247.8" font-family="Times,serif" font-size="14.00" fill="#000000">gcc</text>
</g>
<!-- xgettext -->
<g id="node29" class="node">
<title>xgettext</title>
<polygon fill="none" stroke="#0000ff" stroke-width="2" points="645.5,-66 553.5,-66 553.5,-38 645.5,-38 645.5,-66"/>
<text text-anchor="middle" x="599.5" y="-47.6" font-family="Times,serif" font-size="18.00" fill="#000000">xgettext</text>
</g>
<!-- compulsory&#45;&gt;xgettext -->
<g id="edge26" class="edge">
<title>compulsory&#45;&gt;xgettext</title>
<path fill="none" stroke="#000000" stroke-width="1.5" d="M475.2903,-135.9362C492.2893,-128.2346 513.0166,-118.0253 530.5,-107 546.4442,-96.9453 563.002,-83.8498 575.9,-72.9595"/>
<polygon fill="#000000" stroke="#000000" stroke-width="1.5" points="578.4953,-75.3444 583.8041,-66.1756 573.9362,-70.0326 578.4953,-75.3444"/>
</g>
<!-- lots_lib_c -->
<g id="node13" class="node">
<title>lots_lib_c</title>
<path fill="none" stroke="#0000ff" stroke-width="2" d="M719.8333,-816C719.8333,-816 779.1667,-816 779.1667,-816 783.8333,-816 788.5,-820.6667 788.5,-825.3333 788.5,-825.3333 788.5,-834.6667 788.5,-834.6667 788.5,-839.3333 783.8333,-844 779.1667,-844 779.1667,-844 719.8333,-844 719.8333,-844 715.1667,-844 710.5,-839.3333 710.5,-834.6667 710.5,-834.6667 710.5,-825.3333 710.5,-825.3333 710.5,-820.6667 715.1667,-816 719.8333,-816"/>
<text text-anchor="middle" x="749.5" y="-825.6" font-family="Times,serif" font-size="18.00" fill="#000000">{lib.c}</text>
</g>
<!-- lots_lib_o -->
<g id="node14" class="node">
<title>lots_lib_o</title>
<path fill="none" stroke="#0000ff" stroke-width="2" d="M1039.8333,-816C1039.8333,-816 1100.1667,-816 1100.1667,-816 1104.8333,-816 1109.5,-820.6667 1109.5,-825.3333 1109.5,-825.3333 1109.5,-834.6667 1109.5,-834.6667 1109.5,-839.3333 1104.8333,-844 1100.1667,-844 1100.1667,-844 1039.8333,-844 1039.8333,-844 1035.1667,-844 1030.5,-839.3333 1030.5,-834.6667 1030.5,-834.6667 1030.5,-825.3333 1030.5,-825.3333 1030.5,-820.6667 1035.1667,-816 1039.8333,-816"/>
<text text-anchor="middle" x="1070" y="-825.6" font-family="Times,serif" font-size="18.00" fill="#000000">{lib.o}</text>
</g>
<!-- lots_lib_c&#45;&gt;lots_lib_o -->
<g id="edge12" class="edge">
<title>lots_lib_c&#45;&gt;lots_lib_o</title>
<path fill="none" stroke="#000000" stroke-width="1.5" d="M788.7996,-830C847.0684,-830 956.3441,-830 1020.1603,-830"/>
<polygon fill="#000000" stroke="#000000" stroke-width="1.5" points="1020.379,-833.5001 1030.379,-830 1020.3789,-826.5001 1020.379,-833.5001"/>
<text text-anchor="middle" x="917.5" y="-833.8" font-family="Times,serif" font-size="14.00" fill="#000000">gcc</text>
</g>
<!-- lib_a -->
<g id="node15" class="node">
<title>lib_a</title>
<path fill="none" stroke="#0000ff" stroke-width="2" d="M1323.3333,-806C1323.3333,-806 1360.6667,-806 1360.6667,-806 1365.3333,-806 1370,-810.6667 1370,-815.3333 1370,-815.3333 1370,-824.6667 1370,-824.6667 1370,-829.3333 1365.3333,-834 1360.6667,-834 1360.6667,-834 1323.3333,-834 1323.3333,-834 1318.6667,-834 1314,-829.3333 1314,-824.6667 1314,-824.6667 1314,-815.3333 1314,-815.3333 1314,-810.6667 1318.6667,-806 1323.3333,-806"/>
<text text-anchor="middle" x="1342" y="-815.6" font-family="Times,serif" font-size="18.00" fill="#000000">lib.a</text>
</g>
<!-- lots_lib_o&#45;&gt;lib_a -->
<g id="edge13" class="edge">
<title>lots_lib_o&#45;&gt;lib_a</title>
<path fill="none" stroke="#000000" stroke-width="1.5" d="M1109.5511,-828.5459C1161.5184,-826.6354 1252.1949,-823.3017 1303.5888,-821.4122"/>
<polygon fill="#000000" stroke="#000000" stroke-width="1.5" points="1303.7615,-824.9083 1313.6261,-821.0432 1303.5042,-817.913 1303.7615,-824.9083"/>
<text text-anchor="middle" x="1211.5" y="-829.8" font-family="Times,serif" font-size="14.00" fill="#000000">ar</text>
</g>
<!-- lib_a&#45;&gt;ld_mutt -->
<g id="edge32" class="edge">
<title>lib_a&#45;&gt;ld_mutt</title>
<path fill="none" stroke="#000000" stroke-width="1.5" d="M1370.0165,-809.3456C1381.6594,-803.9306 1394.7099,-796.4689 1404.5,-787 1437.1882,-755.3841 1460.1169,-706.6629 1471.7392,-677.7944"/>
<polygon fill="#000000" stroke="#000000" stroke-width="1.5" points="1475.1373,-678.7137 1475.5067,-668.1253 1468.6149,-676.1722 1475.1373,-678.7137"/>
</g>
<!-- lots_backend_c -->
<g id="node16" class="node">
<title>lots_backend_c</title>
<path fill="none" stroke="#0000ff" stroke-width="2" d="M693.3333,-718C693.3333,-718 805.6667,-718 805.6667,-718 810.3333,-718 815,-722.6667 815,-727.3333 815,-727.3333 815,-736.6667 815,-736.6667 815,-741.3333 810.3333,-746 805.6667,-746 805.6667,-746 693.3333,-746 693.3333,-746 688.6667,-746 684,-741.3333 684,-736.6667 684,-736.6667 684,-727.3333 684,-727.3333 684,-722.6667 688.6667,-718 693.3333,-718"/>
<text text-anchor="middle" x="749.5" y="-727.6" font-family="Times,serif" font-size="18.00" fill="#000000">{backend.c}</text>
</g>
<!-- lots_backend_o -->
<g id="node17" class="node">
<title>lots_backend_o</title>
<path fill="none" stroke="#0000ff" stroke-width="2" d="M1013.8333,-718C1013.8333,-718 1126.1667,-718 1126.1667,-718 1130.8333,-718 1135.5,-722.6667 1135.5,-727.3333 1135.5,-727.3333 1135.5,-736.6667 1135.5,-736.6667 1135.5,-741.3333 1130.8333,-746 1126.1667,-746 1126.1667,-746 1013.8333,-746 1013.8333,-746 1009.1667,-746 1004.5,-741.3333 1004.5,-736.6667 1004.5,-736.6667 1004.5,-727.3333 1004.5,-727.3333 1004.5,-722.6667 1009.1667,-718 1013.8333,-718"/>
<text text-anchor="middle" x="1070" y="-727.6" font-family="Times,serif" font-size="18.00" fill="#000000">{backend.o}</text>
</g>
<!-- lots_backend_c&#45;&gt;lots_backend_o -->
<g id="edge14" class="edge">
<title>lots_backend_c&#45;&gt;lots_backend_o</title>
<path fill="none" stroke="#000000" stroke-width="1.5" d="M815.1313,-732C867.0902,-732 939.7252,-732 994.1673,-732"/>
<polygon fill="#000000" stroke="#000000" stroke-width="1.5" points="994.4565,-735.5001 1004.4564,-732 994.4564,-728.5001 994.4565,-735.5001"/>
<text text-anchor="middle" x="917.5" y="-735.8" font-family="Times,serif" font-size="14.00" fill="#000000">gcc</text>
</g>
<!-- backend_a -->
<g id="node18" class="node">
<title>backend_a</title>
<path fill="none" stroke="#0000ff" stroke-width="2" d="M1296.8333,-708C1296.8333,-708 1387.1667,-708 1387.1667,-708 1391.8333,-708 1396.5,-712.6667 1396.5,-717.3333 1396.5,-717.3333 1396.5,-726.6667 1396.5,-726.6667 1396.5,-731.3333 1391.8333,-736 1387.1667,-736 1387.1667,-736 1296.8333,-736 1296.8333,-736 1292.1667,-736 1287.5,-731.3333 1287.5,-726.6667 1287.5,-726.6667 1287.5,-717.3333 1287.5,-717.3333 1287.5,-712.6667 1292.1667,-708 1296.8333,-708"/>
<text text-anchor="middle" x="1342" y="-717.6" font-family="Times,serif" font-size="18.00" fill="#000000">backend.a</text>
</g>
<!-- lots_backend_o&#45;&gt;backend_a -->
<g id="edge15" class="edge">
<title>lots_backend_o&#45;&gt;backend_a</title>
<path fill="none" stroke="#000000" stroke-width="1.5" d="M1135.8436,-729.5793C1178.7826,-728.0006 1234.5702,-725.9496 1277.282,-724.3793"/>
<polygon fill="#000000" stroke="#000000" stroke-width="1.5" points="1277.4244,-727.8766 1287.289,-724.0114 1277.1672,-720.8813 1277.4244,-727.8766"/>
<text text-anchor="middle" x="1211.5" y="-731.8" font-family="Times,serif" font-size="14.00" fill="#000000">ar</text>
</g>
<!-- backend_a&#45;&gt;ld_mutt -->
<g id="edge33" class="edge">
<title>backend_a&#45;&gt;ld_mutt</title>
<path fill="none" stroke="#000000" stroke-width="1.5" d="M1370.6973,-707.9104C1392.0067,-697.448 1421.2263,-683.1019 1444.166,-671.8391"/>
<polygon fill="#000000" stroke="#000000" stroke-width="1.5" points="1445.8192,-674.9266 1453.2531,-667.3775 1442.7341,-668.643 1445.8192,-674.9266"/>
</g>
<!-- lots_hcache_c -->
<g id="node19" class="node">
<title>lots_hcache_c</title>
<path fill="none" stroke="#0000ff" stroke-width="2" d="M699.8333,-620C699.8333,-620 799.1667,-620 799.1667,-620 803.8333,-620 808.5,-624.6667 808.5,-629.3333 808.5,-629.3333 808.5,-638.6667 808.5,-638.6667 808.5,-643.3333 803.8333,-648 799.1667,-648 799.1667,-648 699.8333,-648 699.8333,-648 695.1667,-648 690.5,-643.3333 690.5,-638.6667 690.5,-638.6667 690.5,-629.3333 690.5,-629.3333 690.5,-624.6667 695.1667,-620 699.8333,-620"/>
<text text-anchor="middle" x="749.5" y="-629.6" font-family="Times,serif" font-size="18.00" fill="#000000">{hcache.c}</text>
</g>
<!-- lots_hcache_o -->
<g id="node20" class="node">
<title>lots_hcache_o</title>
<path fill="none" stroke="#0000ff" stroke-width="2" d="M1019.8333,-536C1019.8333,-536 1120.1667,-536 1120.1667,-536 1124.8333,-536 1129.5,-540.6667 1129.5,-545.3333 1129.5,-545.3333 1129.5,-554.6667 1129.5,-554.6667 1129.5,-559.3333 1124.8333,-564 1120.1667,-564 1120.1667,-564 1019.8333,-564 1019.8333,-564 1015.1667,-564 1010.5,-559.3333 1010.5,-554.6667 1010.5,-554.6667 1010.5,-545.3333 1010.5,-545.3333 1010.5,-540.6667 1015.1667,-536 1019.8333,-536"/>
<text text-anchor="middle" x="1070" y="-545.6" font-family="Times,serif" font-size="18.00" fill="#000000">{hcache.o}</text>
</g>
<!-- lots_hcache_c&#45;&gt;lots_hcache_o -->
<g id="edge19" class="edge">
<title>lots_hcache_c&#45;&gt;lots_hcache_o</title>
<path fill="none" stroke="#000000" stroke-width="1.5" d="M808.3113,-619.9986C855.3119,-608.6402 922.806,-591.9514 981.5,-576 991.9117,-573.1704 1002.9731,-570.0293 1013.6209,-566.9367"/>
<polygon fill="#000000" stroke="#000000" stroke-width="1.5" points="1014.6369,-570.2862 1023.2528,-564.1204 1012.6724,-563.5675 1014.6369,-570.2862"/>
<text text-anchor="middle" x="917.5" y="-611.8" font-family="Times,serif" font-size="14.00" fill="#000000">gcc</text>
</g>
<!-- hcache_a -->
<g id="node23" class="node">
<title>hcache_a</title>
<path fill="none" stroke="#0000ff" stroke-width="2" d="M1303.3333,-572C1303.3333,-572 1380.6667,-572 1380.6667,-572 1385.3333,-572 1390,-576.6667 1390,-581.3333 1390,-581.3333 1390,-590.6667 1390,-590.6667 1390,-595.3333 1385.3333,-600 1380.6667,-600 1380.6667,-600 1303.3333,-600 1303.3333,-600 1298.6667,-600 1294,-595.3333 1294,-590.6667 1294,-590.6667 1294,-581.3333 1294,-581.3333 1294,-576.6667 1298.6667,-572 1303.3333,-572"/>
<text text-anchor="middle" x="1342" y="-581.6" font-family="Times,serif" font-size="18.00" fill="#000000">hcache.a</text>
</g>
<!-- lots_hcache_o&#45;&gt;hcache_a -->
<g id="edge20" class="edge">
<title>lots_hcache_o&#45;&gt;hcache_a</title>
<path fill="none" stroke="#000000" stroke-width="1.5" d="M1129.6916,-557.9004C1175.4883,-563.9617 1238.3538,-572.2821 1283.7796,-578.2944"/>
<polygon fill="#000000" stroke="#000000" stroke-width="1.5" points="1283.3993,-581.7745 1293.7721,-579.6169 1284.3178,-574.835 1283.3993,-581.7745"/>
<text text-anchor="middle" x="1211.5" y="-578.8" font-family="Times,serif" font-size="14.00" fill="#000000">ar</text>
</g>
<!-- backends_c -->
<g id="node21" class="node">
<title>backends_c</title>
<path fill="none" stroke="#0000ff" stroke-width="2" d="M677.8333,-539C677.8333,-539 821.1667,-539 821.1667,-539 825.8333,-539 830.5,-543.6667 830.5,-548.3333 830.5,-548.3333 830.5,-557.6667 830.5,-557.6667 830.5,-562.3333 825.8333,-567 821.1667,-567 821.1667,-567 677.8333,-567 677.8333,-567 673.1667,-567 668.5,-562.3333 668.5,-557.6667 668.5,-557.6667 668.5,-548.3333 668.5,-548.3333 668.5,-543.6667 673.1667,-539 677.8333,-539"/>
<text text-anchor="start" x="676.5" y="-549.6" font-family="Times,serif" font-size="18.00" fill="#000000">{backends.c} </text>
<text text-anchor="start" x="806.5" y="-549.6" font-family="Times,serif" font-size="18.00" fill="#00ff00">★</text>
</g>
<!-- backends_c&#45;&gt;lots_hcache_o -->
<g id="edge18" class="edge">
<title>backends_c&#45;&gt;lots_hcache_o</title>
<path fill="none" stroke="#000000" stroke-width="1.5" d="M830.79,-552.2391C883.1,-551.7495 950.3749,-551.1197 1000.2497,-550.6529"/>
<polygon fill="#000000" stroke="#000000" stroke-width="1.5" points="1000.3327,-554.1524 1010.2995,-550.5588 1000.2671,-547.1527 1000.3327,-554.1524"/>
<text text-anchor="middle" x="917.5" y="-555.8" font-family="Times,serif" font-size="14.00" fill="#000000">gcc</text>
</g>
<!-- hcachever_h&#45;&gt;lots_hcache_o -->
<g id="edge17" class="edge">
<title>hcachever_h&#45;&gt;lots_hcache_o</title>
<path fill="none" stroke="#000000" stroke-width="1.5" d="M811.6756,-500.0277C865.8554,-510.5087 944.3377,-525.6909 1000.5596,-536.5669"/>
<polygon fill="#000000" stroke="#000000" stroke-width="1.5" points="999.9529,-540.0144 1010.4357,-538.4774 1001.2825,-533.1418 999.9529,-540.0144"/>
</g>
<!-- hcache_a&#45;&gt;ld_mutt -->
<g id="edge31" class="edge">
<title>hcache_a&#45;&gt;ld_mutt</title>
<path fill="none" stroke="#000000" stroke-width="1.5" d="M1370.6973,-600.0896C1392.0067,-610.552 1421.2263,-624.8981 1444.166,-636.1609"/>
<polygon fill="#000000" stroke="#000000" stroke-width="1.5" points="1442.7341,-639.357 1453.2531,-640.6225 1445.8192,-633.0734 1442.7341,-639.357"/>
</g>
<!-- conditional -->
<g id="node24" class="node">
<title>conditional</title>
<path fill="none" stroke="#0000ff" stroke-width="2" d="M362.8333,-397C362.8333,-397 521.1667,-397 521.1667,-397 525.8333,-397 530.5,-401.6667 530.5,-406.3333 530.5,-406.3333 530.5,-415.6667 530.5,-415.6667 530.5,-420.3333 525.8333,-425 521.1667,-425 521.1667,-425 362.8333,-425 362.8333,-425 358.1667,-425 353.5,-420.3333 353.5,-415.6667 353.5,-415.6667 353.5,-406.3333 353.5,-406.3333 353.5,-401.6667 358.1667,-397 362.8333,-397"/>
<text text-anchor="start" x="361.5" y="-407.6" font-family="Times,serif" font-size="18.00" fill="#000000">{conditional.c} </text>
<text text-anchor="start" x="506.5" y="-407.6" font-family="Times,serif" font-size="18.00" fill="#00ff00">★</text>
</g>
<!-- conditional&#45;&gt;lots_obj -->
<g id="edge22" class="edge">
<title>conditional&#45;&gt;lots_obj</title>
<path fill="none" stroke="#000000" stroke-width="1.5" d="M492.6266,-396.9367C533.8188,-385.466 593.4453,-368.7979 645.5,-354 660.4018,-349.7638 676.4913,-345.1448 691.4581,-340.8289"/>
<polygon fill="#000000" stroke="#000000" stroke-width="1.5" points="692.4706,-344.1796 701.1076,-338.0435 690.5292,-337.4542 692.4706,-344.1796"/>
<text text-anchor="middle" x="599.5" y="-382.8" font-family="Times,serif" font-size="14.00" fill="#000000">gcc</text>
</g>
<!-- enviromental -->
<g id="node25" class="node">
<title>enviromental</title>
<path fill="none" stroke="#0000ff" stroke-width="2" d="M363.8333,-223C363.8333,-223 520.1667,-223 520.1667,-223 524.8333,-223 529.5,-227.6667 529.5,-232.3333 529.5,-232.3333 529.5,-241.6667 529.5,-241.6667 529.5,-246.3333 524.8333,-251 520.1667,-251 520.1667,-251 363.8333,-251 363.8333,-251 359.1667,-251 354.5,-246.3333 354.5,-241.6667 354.5,-241.6667 354.5,-232.3333 354.5,-232.3333 354.5,-227.6667 359.1667,-223 363.8333,-223"/>
<text text-anchor="middle" x="442" y="-232.6" font-family="Times,serif" font-size="18.00" fill="#000000">{enviromental.c}</text>
</g>
<!-- enviromental&#45;&gt;lots_obj -->
<g id="edge23" class="edge">
<title>enviromental&#45;&gt;lots_obj</title>
<path fill="none" stroke="#000000" stroke-width="1.5" d="M491.7469,-251.0747C545.8972,-266.3953 632.4491,-290.8832 690.1178,-307.1992"/>
<polygon fill="#000000" stroke="#000000" stroke-width="1.5" points="689.2494,-310.5908 699.8245,-309.9455 691.1551,-303.8552 689.2494,-310.5908"/>
<text text-anchor="middle" x="599.5" y="-297.8" font-family="Times,serif" font-size="14.00" fill="#000000">gcc</text>
</g>
<!-- lots_mo -->
<g id="node26" class="node">
<title>lots_mo</title>
<path fill="none" stroke="#0000ff" stroke-width="2" d="M1433.8333,-38C1433.8333,-38 1527.1667,-38 1527.1667,-38 1531.8333,-38 1536.5,-42.6667 1536.5,-47.3333 1536.5,-47.3333 1536.5,-56.6667 1536.5,-56.6667 1536.5,-61.3333 1531.8333,-66 1527.1667,-66 1527.1667,-66 1433.8333,-66 1433.8333,-66 1429.1667,-66 1424.5,-61.3333 1424.5,-56.6667 1424.5,-56.6667 1424.5,-47.3333 1424.5,-47.3333 1424.5,-42.6667 1429.1667,-38 1433.8333,-38"/>
<text text-anchor="middle" x="1480.5" y="-47.6" font-family="Times,serif" font-size="18.00" fill="#000000">{lang.mo}</text>
</g>
<!-- lots_po -->
<g id="node27" class="node">
<title>lots_po</title>
<path fill="none" stroke="#0000ff" stroke-width="2" d="M1167.8333,-38C1167.8333,-38 1255.1667,-38 1255.1667,-38 1259.8333,-38 1264.5,-42.6667 1264.5,-47.3333 1264.5,-47.3333 1264.5,-56.6667 1264.5,-56.6667 1264.5,-61.3333 1259.8333,-66 1255.1667,-66 1255.1667,-66 1167.8333,-66 1167.8333,-66 1163.1667,-66 1158.5,-61.3333 1158.5,-56.6667 1158.5,-56.6667 1158.5,-47.3333 1158.5,-47.3333 1158.5,-42.6667 1163.1667,-38 1167.8333,-38"/>
<text text-anchor="middle" x="1211.5" y="-47.6" font-family="Times,serif" font-size="18.00" fill="#000000">{lang.po}</text>
</g>
<!-- lots_po&#45;&gt;lots_mo -->
<g id="edge29" class="edge">
<title>lots_po&#45;&gt;lots_mo</title>
<path fill="none" stroke="#000000" stroke-width="1.5" d="M1264.6457,-52C1307.4928,-52 1367.9837,-52 1414.0325,-52"/>
<polygon fill="#000000" stroke="#000000" stroke-width="1.5" points="1414.2189,-55.5001 1424.2189,-52 1414.2188,-48.5001 1414.2189,-55.5001"/>
<text text-anchor="middle" x="1342" y="-55.8" font-family="Times,serif" font-size="14.00" fill="#000000">msgfmt</text>
</g>
<!-- neomutt_pot -->
<g id="node28" class="node">
<title>neomutt_pot</title>
<path fill="none" stroke="#0000ff" stroke-width="2" d="M862.8333,-38C862.8333,-38 972.1667,-38 972.1667,-38 976.8333,-38 981.5,-42.6667 981.5,-47.3333 981.5,-47.3333 981.5,-56.6667 981.5,-56.6667 981.5,-61.3333 976.8333,-66 972.1667,-66 972.1667,-66 862.8333,-66 862.8333,-66 858.1667,-66 853.5,-61.3333 853.5,-56.6667 853.5,-56.6667 853.5,-47.3333 853.5,-47.3333 853.5,-42.6667 858.1667,-38 862.8333,-38"/>
<text text-anchor="middle" x="917.5" y="-47.6" font-family="Times,serif" font-size="18.00" fill="#000000">neomutt.pot</text>
</g>
<!-- neomutt_pot&#45;&gt;lots_po -->
<g id="edge28" class="edge">
<title>neomutt_pot&#45;&gt;lots_po</title>
<path fill="none" stroke="#000000" stroke-width="1.5" d="M981.6563,-52C1031.0282,-52 1098.912,-52 1148.0949,-52"/>
<polygon fill="#000000" stroke="#000000" stroke-width="1.5" points="1148.2928,-55.5001 1158.2928,-52 1148.2927,-48.5001 1148.2928,-55.5001"/>
<text text-anchor="middle" x="1070" y="-55.8" font-family="Times,serif" font-size="14.00" fill="#000000">translator</text>
</g>
<!-- xgettext&#45;&gt;neomutt_pot -->
<g id="edge27" class="edge">
<title>xgettext&#45;&gt;neomutt_pot</title>
<path fill="none" stroke="#000000" stroke-width="1.5" d="M645.7399,-52C697.4411,-52 781.9139,-52 842.9701,-52"/>
<polygon fill="#000000" stroke="#000000" stroke-width="1.5" points="843.3207,-55.5001 853.3206,-52 843.3206,-48.5001 843.3207,-55.5001"/>
</g>
<!-- POTFILES -->
<g id="node30" class="node">
<title>POTFILES</title>
<path fill="none" stroke="#0000ff" stroke-width="2" d="M203.3333,-38C203.3333,-38 297.6667,-38 297.6667,-38 302.3333,-38 307,-42.6667 307,-47.3333 307,-47.3333 307,-56.6667 307,-56.6667 307,-61.3333 302.3333,-66 297.6667,-66 297.6667,-66 203.3333,-66 203.3333,-66 198.6667,-66 194,-61.3333 194,-56.6667 194,-56.6667 194,-47.3333 194,-47.3333 194,-42.6667 198.6667,-38 203.3333,-38"/>
<text text-anchor="middle" x="250.5" y="-47.6" font-family="Times,serif" font-size="18.00" fill="#000000">POTFILES</text>
</g>
<!-- POTFILES&#45;&gt;xgettext -->
<g id="edge25" class="edge">
<title>POTFILES&#45;&gt;xgettext</title>
<path fill="none" stroke="#000000" stroke-width="1.5" d="M307.3496,-52C372.4362,-52 478.3975,-52 543.2372,-52"/>
<polygon fill="#000000" stroke="#000000" stroke-width="1.5" points="543.278,-55.5001 553.2779,-52 543.2779,-48.5001 543.278,-55.5001"/>
</g>
<!-- pgpewrap_src -->
<g id="node31" class="node">
<title>pgpewrap_src</title>
<path fill="none" stroke="#0000ff" stroke-width="2" d="M25.3333,-767C25.3333,-767 128.6667,-767 128.6667,-767 133.3333,-767 138,-771.6667 138,-776.3333 138,-776.3333 138,-785.6667 138,-785.6667 138,-790.3333 133.3333,-795 128.6667,-795 128.6667,-795 25.3333,-795 25.3333,-795 20.6667,-795 16,-790.3333 16,-785.6667 16,-785.6667 16,-776.3333 16,-776.3333 16,-771.6667 20.6667,-767 25.3333,-767"/>
<text text-anchor="middle" x="77" y="-776.6" font-family="Times,serif" font-size="18.00" fill="#000000">pgpewrap.c</text>
</g>
<!-- pgpewrap -->
<g id="node32" class="node">
<title>pgpewrap</title>
<path fill="none" stroke="#0000ff" stroke-width="2" d="M397.8333,-767C397.8333,-767 486.1667,-767 486.1667,-767 490.8333,-767 495.5,-771.6667 495.5,-776.3333 495.5,-776.3333 495.5,-785.6667 495.5,-785.6667 495.5,-790.3333 490.8333,-795 486.1667,-795 486.1667,-795 397.8333,-795 397.8333,-795 393.1667,-795 388.5,-790.3333 388.5,-785.6667 388.5,-785.6667 388.5,-776.3333 388.5,-776.3333 388.5,-771.6667 393.1667,-767 397.8333,-767"/>
<text text-anchor="middle" x="442" y="-776.6" font-family="Times,serif" font-size="18.00" fill="#000000">pgpewrap</text>
</g>
<!-- pgpewrap_src&#45;&gt;pgpewrap -->
<g id="edge30" class="edge">
<title>pgpewrap_src&#45;&gt;pgpewrap</title>
<path fill="none" stroke="#000000" stroke-width="1.5" d="M138.0928,-781C204.6893,-781 310.7599,-781 378.3477,-781"/>
<polygon fill="#000000" stroke="#000000" stroke-width="1.5" points="378.4417,-784.5001 388.4417,-781 378.4416,-777.5001 378.4417,-784.5001"/>
<text text-anchor="middle" x="250.5" y="-784.8" font-family="Times,serif" font-size="14.00" fill="#000000">gcc</text>
</g>
</g>
</svg>
