<?xml version="1.0" encoding="UTF-8" standalone="no"?>
<!DOCTYPE svg PUBLIC "-//W3C//DTD SVG 1.1//EN"
 "http://www.w3.org/Graphics/SVG/1.1/DTD/svg11.dtd">
<!-- Generated by graphviz version 2.40.1 (0)
 -->
<!-- Title: build Pages: 1 -->
<svg width="1116pt" height="621pt"
 viewBox="0.00 0.00 1116.00 621.00" xmlns="http://www.w3.org/2000/svg" xmlns:xlink="http://www.w3.org/1999/xlink">
<g id="graph0" class="graph" transform="scale(1 1) rotate(0) translate(4 617)">
<title>build</title>
<polygon fill="#ffffff" stroke="transparent" points="-4,4 -4,-617 1112,-617 1112,4 -4,4"/>
<!-- functions_h -->
<g id="node1" class="node">
<title>functions_h</title>
<path fill="none" stroke="#ff0000" stroke-width="2" d="M31.3333,-454C31.3333,-454 129.6667,-454 129.6667,-454 134.3333,-454 139,-458.6667 139,-463.3333 139,-463.3333 139,-472.6667 139,-472.6667 139,-477.3333 134.3333,-482 129.6667,-482 129.6667,-482 31.3333,-482 31.3333,-482 26.6667,-482 22,-477.3333 22,-472.6667 22,-472.6667 22,-463.3333 22,-463.3333 22,-458.6667 26.6667,-454 31.3333,-454"/>
<text text-anchor="middle" x="80.5" y="-463.6" font-family="Times,serif" font-size="18.00" fill="#000000">functions.h</text>
</g>
<!-- gen_map_doc -->
<g id="node19" class="node">
<title>gen_map_doc</title>
<polygon fill="none" stroke="#00ff00" stroke-width="2" points="378.5,-417 246.5,-417 246.5,-389 378.5,-389 378.5,-417"/>
<text text-anchor="middle" x="312.5" y="-398.6" font-family="Times,serif" font-size="18.00" fill="#000000">gen&#45;map&#45;doc</text>
</g>
<!-- functions_h&#45;&gt;gen_map_doc -->
<g id="edge21" class="edge">
<title>functions_h&#45;&gt;gen_map_doc</title>
<path fill="none" stroke="#000000" stroke-width="1.5" d="M130.5549,-453.976C166.2605,-443.9723 214.4482,-430.4714 252.2623,-419.8769"/>
<polygon fill="#000000" stroke="#000000" stroke-width="1.5" points="253.4499,-423.1791 262.1349,-417.1109 251.5614,-416.4386 253.4499,-423.1791"/>
<text text-anchor="middle" x="185.5" y="-445.8" font-family="Times,serif" font-size="14.00" fill="#000000">cpp</text>
</g>
<!-- opcodes -->
<g id="node2" class="node">
<title>opcodes</title>
<path fill="none" stroke="#ff0000" stroke-width="2" d="M36.3333,-389C36.3333,-389 124.6667,-389 124.6667,-389 129.3333,-389 134,-393.6667 134,-398.3333 134,-398.3333 134,-407.6667 134,-407.6667 134,-412.3333 129.3333,-417 124.6667,-417 124.6667,-417 36.3333,-417 36.3333,-417 31.6667,-417 27,-412.3333 27,-407.6667 27,-407.6667 27,-398.3333 27,-398.3333 27,-393.6667 31.6667,-389 36.3333,-389"/>
<text text-anchor="middle" x="80.5" y="-398.6" font-family="Times,serif" font-size="18.00" fill="#000000">opcodes.h</text>
</g>
<!-- opcodes&#45;&gt;gen_map_doc -->
<g id="edge17" class="edge">
<title>opcodes&#45;&gt;gen_map_doc</title>
<path fill="none" stroke="#000000" stroke-width="1.5" d="M134.0168,-403C164.3351,-403 202.7703,-403 236.2022,-403"/>
<polygon fill="#000000" stroke="#000000" stroke-width="1.5" points="236.4025,-406.5001 246.4025,-403 236.4025,-399.5001 236.4025,-406.5001"/>
</g>
<!-- init_h -->
<g id="node3" class="node">
<title>init_h</title>
<path fill="none" stroke="#ff0000" stroke-width="2" d="M57.3333,-195C57.3333,-195 103.6667,-195 103.6667,-195 108.3333,-195 113,-199.6667 113,-204.3333 113,-204.3333 113,-213.6667 113,-213.6667 113,-218.3333 108.3333,-223 103.6667,-223 103.6667,-223 57.3333,-223 57.3333,-223 52.6667,-223 48,-218.3333 48,-213.6667 48,-213.6667 48,-204.3333 48,-204.3333 48,-199.6667 52.6667,-195 57.3333,-195"/>
<text text-anchor="middle" x="80.5" y="-204.6" font-family="Times,serif" font-size="18.00" fill="#000000">init.h</text>
</g>
<!-- makedoc_c -->
<g id="node20" class="node">
<title>makedoc_c</title>
<polygon fill="none" stroke="#00ff00" stroke-width="2" points="372,-223 253,-223 253,-195 372,-195 372,-223"/>
<text text-anchor="middle" x="312.5" y="-204.6" font-family="Times,serif" font-size="18.00" fill="#000000">makedoc &#45;c</text>
</g>
<!-- init_h&#45;&gt;makedoc_c -->
<g id="edge12" class="edge">
<title>init_h&#45;&gt;makedoc_c</title>
<path fill="none" stroke="#000000" stroke-width="1.5" d="M113.2479,-209C146.6661,-209 199.5678,-209 242.465,-209"/>
<polygon fill="#000000" stroke="#000000" stroke-width="1.5" points="242.574,-212.5001 252.574,-209 242.5739,-205.5001 242.574,-212.5001"/>
</g>
<!-- makedoc_m -->
<g id="node21" class="node">
<title>makedoc_m</title>
<polygon fill="none" stroke="#00ff00" stroke-width="2" points="376,-28 249,-28 249,0 376,0 376,-28"/>
<text text-anchor="middle" x="312.5" y="-9.6" font-family="Times,serif" font-size="18.00" fill="#000000">makedoc &#45;m</text>
</g>
<!-- init_h&#45;&gt;makedoc_m -->
<g id="edge7" class="edge">
<title>init_h&#45;&gt;makedoc_m</title>
<path fill="none" stroke="#000000" stroke-width="1.5" d="M87.8208,-194.8809C104.8767,-163.3705 150.3822,-86.876 210,-46 218.8877,-39.9063 228.9877,-34.933 239.2994,-30.8848"/>
<polygon fill="#000000" stroke="#000000" stroke-width="1.5" points="240.6036,-34.1347 248.8001,-27.4215 238.2062,-27.5581 240.6036,-34.1347"/>
</g>
<!-- makedoc_s -->
<g id="node22" class="node">
<title>makedoc_s</title>
<polygon fill="none" stroke="#00ff00" stroke-width="2" points="372,-353 253,-353 253,-325 372,-325 372,-353"/>
<text text-anchor="middle" x="312.5" y="-334.6" font-family="Times,serif" font-size="18.00" fill="#000000">makedoc &#45;s</text>
</g>
<!-- init_h&#45;&gt;makedoc_s -->
<g id="edge19" class="edge">
<title>init_h&#45;&gt;makedoc_s</title>
<path fill="none" stroke="#000000" stroke-width="1.5" d="M95.7031,-223.0858C118.8006,-243.8281 164.8361,-282.649 210,-306 221.7775,-312.0893 234.8963,-317.3375 247.7093,-321.7431"/>
<polygon fill="#000000" stroke="#000000" stroke-width="1.5" points="246.8274,-325.1377 257.4205,-324.9479 249.0211,-318.4903 246.8274,-325.1377"/>
<text text-anchor="middle" x="185.5" y="-303.8" font-family="Times,serif" font-size="14.00" fill="#000000">cpp</text>
</g>
<!-- lots_1 -->
<g id="node4" class="node">
<title>lots_1</title>
<path fill="none" stroke="#0000ff" stroke-width="2" d="M255.3333,-519C255.3333,-519 369.6667,-519 369.6667,-519 374.3333,-519 379,-523.6667 379,-528.3333 379,-528.3333 379,-537.6667 379,-537.6667 379,-542.3333 374.3333,-547 369.6667,-547 369.6667,-547 255.3333,-547 255.3333,-547 250.6667,-547 246,-542.3333 246,-537.6667 246,-537.6667 246,-528.3333 246,-528.3333 246,-523.6667 250.6667,-519 255.3333,-519"/>
<text text-anchor="middle" x="312.5" y="-528.6" font-family="Times,serif" font-size="18.00" fill="#000000">{example.1}</text>
</g>
<!-- lots_man -->
<g id="node5" class="node">
<title>lots_man</title>
<path fill="none" stroke="#0000ff" stroke-width="2" d="M9.3333,-519C9.3333,-519 151.6667,-519 151.6667,-519 156.3333,-519 161,-523.6667 161,-528.3333 161,-528.3333 161,-537.6667 161,-537.6667 161,-542.3333 156.3333,-547 151.6667,-547 151.6667,-547 9.3333,-547 9.3333,-547 4.6667,-547 0,-542.3333 0,-537.6667 0,-537.6667 0,-528.3333 0,-528.3333 0,-523.6667 4.6667,-519 9.3333,-519"/>
<text text-anchor="middle" x="80.5" y="-528.6" font-family="Times,serif" font-size="18.00" fill="#000000">{example.man}</text>
</g>
<!-- lots_man&#45;&gt;lots_1 -->
<g id="edge1" class="edge">
<title>lots_man&#45;&gt;lots_1</title>
<path fill="none" stroke="#000000" stroke-width="1.5" d="M161.3167,-533C185.4603,-533 211.8501,-533 235.7266,-533"/>
<polygon fill="#000000" stroke="#000000" stroke-width="1.5" points="235.7917,-536.5001 245.7917,-533 235.7916,-529.5001 235.7917,-536.5001"/>
<text text-anchor="middle" x="185.5" y="-536.8" font-family="Times,serif" font-size="14.00" fill="#000000">sed</text>
</g>
<!-- lots_xsl -->
<g id="node6" class="node">
<title>lots_xsl</title>
<path fill="none" stroke="#0000ff" stroke-width="2" d="M471.3333,-454C471.3333,-454 598.6667,-454 598.6667,-454 603.3333,-454 608,-458.6667 608,-463.3333 608,-463.3333 608,-472.6667 608,-472.6667 608,-477.3333 603.3333,-482 598.6667,-482 598.6667,-482 471.3333,-482 471.3333,-482 466.6667,-482 462,-477.3333 462,-472.6667 462,-472.6667 462,-463.3333 462,-463.3333 462,-458.6667 466.6667,-454 471.3333,-454"/>
<text text-anchor="middle" x="535" y="-463.6" font-family="Times,serif" font-size="18.00" fill="#000000">{neomutt.xsl}</text>
</g>
<!-- xsltproc -->
<g id="node23" class="node">
<title>xsltproc</title>
<polygon fill="none" stroke="#0000ff" stroke-width="2" points="720,-417 631,-417 631,-389 720,-389 720,-417"/>
<text text-anchor="middle" x="675.5" y="-398.6" font-family="Times,serif" font-size="18.00" fill="#000000">xsltproc</text>
</g>
<!-- lots_xsl&#45;&gt;xsltproc -->
<g id="edge3" class="edge">
<title>lots_xsl&#45;&gt;xsltproc</title>
<path fill="none" stroke="#000000" stroke-width="1.5" d="M568.7046,-453.8492C584.3913,-447.1304 603.2457,-438.8651 620,-431 626.2356,-428.0728 632.8119,-424.8646 639.1714,-421.6976"/>
<polygon fill="#000000" stroke="#000000" stroke-width="1.5" points="640.906,-424.743 648.2687,-417.1245 637.762,-418.4888 640.906,-424.743"/>
</g>
<!-- makedoc_src -->
<g id="node7" class="node">
<title>makedoc_src</title>
<path fill="none" stroke="#0000ff" stroke-width="2" d="M33.3333,-584C33.3333,-584 127.6667,-584 127.6667,-584 132.3333,-584 137,-588.6667 137,-593.3333 137,-593.3333 137,-602.6667 137,-602.6667 137,-607.3333 132.3333,-612 127.6667,-612 127.6667,-612 33.3333,-612 33.3333,-612 28.6667,-612 24,-607.3333 24,-602.6667 24,-602.6667 24,-593.3333 24,-593.3333 24,-588.6667 28.6667,-584 33.3333,-584"/>
<text text-anchor="middle" x="80.5" y="-593.6" font-family="Times,serif" font-size="18.00" fill="#000000">makedoc.c</text>
</g>
<!-- makedoc -->
<g id="node24" class="node">
<title>makedoc</title>
<path fill="none" stroke="#0000ff" stroke-width="2" d="M272.8333,-584C272.8333,-584 352.1667,-584 352.1667,-584 356.8333,-584 361.5,-588.6667 361.5,-593.3333 361.5,-593.3333 361.5,-602.6667 361.5,-602.6667 361.5,-607.3333 356.8333,-612 352.1667,-612 352.1667,-612 272.8333,-612 272.8333,-612 268.1667,-612 263.5,-607.3333 263.5,-602.6667 263.5,-602.6667 263.5,-593.3333 263.5,-593.3333 263.5,-588.6667 268.1667,-584 272.8333,-584"/>
<text text-anchor="middle" x="312.5" y="-593.6" font-family="Times,serif" font-size="18.00" fill="#000000">makedoc</text>
</g>
<!-- makedoc_src&#45;&gt;makedoc -->
<g id="edge14" class="edge">
<title>makedoc_src&#45;&gt;makedoc</title>
<path fill="none" stroke="#000000" stroke-width="1.5" d="M137.2536,-598C172.4169,-598 217.5087,-598 253.1465,-598"/>
<polygon fill="#000000" stroke="#000000" stroke-width="1.5" points="253.4052,-601.5001 263.4051,-598 253.4051,-594.5001 253.4052,-601.5001"/>
<text text-anchor="middle" x="185.5" y="-601.8" font-family="Times,serif" font-size="14.00" fill="#000000">gcc</text>
</g>
<!-- manual_html -->
<g id="node8" class="node">
<title>manual_html</title>
<path fill="none" stroke="#0000ff" stroke-width="2" d="M752.3333,-389C752.3333,-389 887.6667,-389 887.6667,-389 892.3333,-389 897,-393.6667 897,-398.3333 897,-398.3333 897,-407.6667 897,-407.6667 897,-412.3333 892.3333,-417 887.6667,-417 887.6667,-417 752.3333,-417 752.3333,-417 747.6667,-417 743,-412.3333 743,-407.6667 743,-407.6667 743,-398.3333 743,-398.3333 743,-393.6667 747.6667,-389 752.3333,-389"/>
<text text-anchor="middle" x="820" y="-398.6" font-family="Times,serif" font-size="18.00" fill="#000000">{manual.html}</text>
</g>
<!-- manual_txt -->
<g id="node9" class="node">
<title>manual_txt</title>
<path fill="none" stroke="#0000ff" stroke-width="2" d="M1002.3333,-389C1002.3333,-389 1098.6667,-389 1098.6667,-389 1103.3333,-389 1108,-393.6667 1108,-398.3333 1108,-398.3333 1108,-407.6667 1108,-407.6667 1108,-412.3333 1103.3333,-417 1098.6667,-417 1098.6667,-417 1002.3333,-417 1002.3333,-417 997.6667,-417 993,-412.3333 993,-407.6667 993,-407.6667 993,-398.3333 993,-398.3333 993,-393.6667 997.6667,-389 1002.3333,-389"/>
<text text-anchor="middle" x="1050.5" y="-398.6" font-family="Times,serif" font-size="18.00" fill="#000000">manual.txt</text>
</g>
<!-- manual_html&#45;&gt;manual_txt -->
<g id="edge6" class="edge">
<title>manual_html&#45;&gt;manual_txt</title>
<path fill="none" stroke="#000000" stroke-width="1.5" d="M897.0736,-403C924.8094,-403 955.8707,-403 982.7527,-403"/>
<polygon fill="#000000" stroke="#000000" stroke-width="1.5" points="982.8352,-406.5001 992.8352,-403 982.8351,-399.5001 982.8352,-406.5001"/>
<text text-anchor="middle" x="945" y="-406.8" font-family="Times,serif" font-size="14.00" fill="#000000">w3m/links</text>
</g>
<!-- manual_xml -->
<g id="node10" class="node">
<title>manual_xml</title>
<path fill="none" stroke="#0000ff" stroke-width="2" d="M482.8333,-389C482.8333,-389 587.1667,-389 587.1667,-389 591.8333,-389 596.5,-393.6667 596.5,-398.3333 596.5,-398.3333 596.5,-407.6667 596.5,-407.6667 596.5,-412.3333 591.8333,-417 587.1667,-417 587.1667,-417 482.8333,-417 482.8333,-417 478.1667,-417 473.5,-412.3333 473.5,-407.6667 473.5,-407.6667 473.5,-398.3333 473.5,-398.3333 473.5,-393.6667 478.1667,-389 482.8333,-389"/>
<text text-anchor="middle" x="535" y="-398.6" font-family="Times,serif" font-size="18.00" fill="#000000">manual.xml</text>
</g>
<!-- manual_xml&#45;&gt;xsltproc -->
<g id="edge2" class="edge">
<title>manual_xml&#45;&gt;xsltproc</title>
<path fill="none" stroke="#000000" stroke-width="1.5" d="M596.6253,-403C604.6229,-403 612.7719,-403 620.6492,-403"/>
<polygon fill="#000000" stroke="#000000" stroke-width="1.5" points="620.8127,-406.5001 630.8126,-403 620.8126,-399.5001 620.8127,-406.5001"/>
</g>
<!-- manual_xml_head -->
<g id="node11" class="node">
<title>manual_xml_head</title>
<path fill="none" stroke="#0000ff" stroke-width="2" d="M235.3333,-454C235.3333,-454 389.6667,-454 389.6667,-454 394.3333,-454 399,-458.6667 399,-463.3333 399,-463.3333 399,-472.6667 399,-472.6667 399,-477.3333 394.3333,-482 389.6667,-482 389.6667,-482 235.3333,-482 235.3333,-482 230.6667,-482 226,-477.3333 226,-472.6667 226,-472.6667 226,-463.3333 226,-463.3333 226,-458.6667 230.6667,-454 235.3333,-454"/>
<text text-anchor="middle" x="312.5" y="-463.6" font-family="Times,serif" font-size="18.00" fill="#000000">manual.xml.head</text>
</g>
<!-- manual_xml_head&#45;&gt;manual_xml -->
<g id="edge15" class="edge">
<title>manual_xml_head&#45;&gt;manual_xml</title>
<path fill="none" stroke="#000000" stroke-width="1.5" d="M361.5632,-453.935C388.0633,-446.3118 421.3393,-436.6968 451,-428 459.7924,-425.422 469.0963,-422.6735 478.1846,-419.9774"/>
<polygon fill="#000000" stroke="#000000" stroke-width="1.5" points="479.3382,-423.2859 487.9273,-417.0829 477.3446,-416.5758 479.3382,-423.2859"/>
<text text-anchor="middle" x="438.5" y="-438.8" font-family="Times,serif" font-size="14.00" fill="#000000">sed</text>
</g>
<!-- manual_xml_tail -->
<g id="node12" class="node">
<title>manual_xml_tail</title>
<path fill="none" stroke="#0000ff" stroke-width="2" d="M10.3333,-324C10.3333,-324 150.6667,-324 150.6667,-324 155.3333,-324 160,-328.6667 160,-333.3333 160,-333.3333 160,-342.6667 160,-342.6667 160,-347.3333 155.3333,-352 150.6667,-352 150.6667,-352 10.3333,-352 10.3333,-352 5.6667,-352 1,-347.3333 1,-342.6667 1,-342.6667 1,-333.3333 1,-333.3333 1,-328.6667 5.6667,-324 10.3333,-324"/>
<text text-anchor="middle" x="80.5" y="-333.6" font-family="Times,serif" font-size="18.00" fill="#000000">manual.xml.tail</text>
</g>
<!-- manual_xml_tail&#45;&gt;gen_map_doc -->
<g id="edge16" class="edge">
<title>manual_xml_tail&#45;&gt;gen_map_doc</title>
<path fill="none" stroke="#000000" stroke-width="1.5" d="M130.5549,-352.024C166.2605,-362.0277 214.4482,-375.5286 252.2623,-386.1231"/>
<polygon fill="#000000" stroke="#000000" stroke-width="1.5" points="251.5614,-389.5614 262.1349,-388.8891 253.4499,-382.8209 251.5614,-389.5614"/>
</g>
<!-- neomuttrc -->
<g id="node13" class="node">
<title>neomuttrc</title>
<path fill="none" stroke="#0000ff" stroke-width="2" d="M489.3333,-228C489.3333,-228 580.6667,-228 580.6667,-228 585.3333,-228 590,-232.6667 590,-237.3333 590,-237.3333 590,-246.6667 590,-246.6667 590,-251.3333 585.3333,-256 580.6667,-256 580.6667,-256 489.3333,-256 489.3333,-256 484.6667,-256 480,-251.3333 480,-246.6667 480,-246.6667 480,-237.3333 480,-237.3333 480,-232.6667 484.6667,-228 489.3333,-228"/>
<text text-anchor="middle" x="535" y="-237.6" font-family="Times,serif" font-size="18.00" fill="#000000">neomuttrc</text>
</g>
<!-- neomuttrc_head -->
<g id="node14" class="node">
<title>neomuttrc_head</title>
<path fill="none" stroke="#0000ff" stroke-width="2" d="M241.8333,-260C241.8333,-260 383.1667,-260 383.1667,-260 387.8333,-260 392.5,-264.6667 392.5,-269.3333 392.5,-269.3333 392.5,-278.6667 392.5,-278.6667 392.5,-283.3333 387.8333,-288 383.1667,-288 383.1667,-288 241.8333,-288 241.8333,-288 237.1667,-288 232.5,-283.3333 232.5,-278.6667 232.5,-278.6667 232.5,-269.3333 232.5,-269.3333 232.5,-264.6667 237.1667,-260 241.8333,-260"/>
<text text-anchor="middle" x="312.5" y="-269.6" font-family="Times,serif" font-size="18.00" fill="#000000">neomuttrc.head</text>
</g>
<!-- neomuttrc_head&#45;&gt;neomuttrc -->
<g id="edge11" class="edge">
<title>neomuttrc_head&#45;&gt;neomuttrc</title>
<path fill="none" stroke="#000000" stroke-width="1.5" d="M392.5133,-262.4925C417.8044,-258.8551 445.4394,-254.8806 469.5838,-251.4082"/>
<polygon fill="#000000" stroke="#000000" stroke-width="1.5" points="470.3008,-254.8412 479.7007,-249.9532 469.3043,-247.9124 470.3008,-254.8412"/>
<text text-anchor="middle" x="438.5" y="-261.8" font-family="Times,serif" font-size="14.00" fill="#000000">sed</text>
</g>
<!-- neomuttrc_man -->
<g id="node15" class="node">
<title>neomuttrc_man</title>
<path fill="none" stroke="#0000ff" stroke-width="2" d="M480.3333,-65C480.3333,-65 589.6667,-65 589.6667,-65 594.3333,-65 599,-69.6667 599,-74.3333 599,-74.3333 599,-83.6667 599,-83.6667 599,-88.3333 594.3333,-93 589.6667,-93 589.6667,-93 480.3333,-93 480.3333,-93 475.6667,-93 471,-88.3333 471,-83.6667 471,-83.6667 471,-74.3333 471,-74.3333 471,-69.6667 475.6667,-65 480.3333,-65"/>
<text text-anchor="middle" x="535" y="-74.6" font-family="Times,serif" font-size="18.00" fill="#000000">neomuttrc.5</text>
</g>
<!-- neomuttrc_man_head -->
<g id="node16" class="node">
<title>neomuttrc_man_head</title>
<path fill="none" stroke="#0000ff" stroke-width="2" d="M219.3333,-130C219.3333,-130 405.6667,-130 405.6667,-130 410.3333,-130 415,-134.6667 415,-139.3333 415,-139.3333 415,-148.6667 415,-148.6667 415,-153.3333 410.3333,-158 405.6667,-158 405.6667,-158 219.3333,-158 219.3333,-158 214.6667,-158 210,-153.3333 210,-148.6667 210,-148.6667 210,-139.3333 210,-139.3333 210,-134.6667 214.6667,-130 219.3333,-130"/>
<text text-anchor="middle" x="312.5" y="-139.6" font-family="Times,serif" font-size="18.00" fill="#000000">neomuttrc.man.head</text>
</g>
<!-- neomuttrc_man_head&#45;&gt;neomuttrc_man -->
<g id="edge8" class="edge">
<title>neomuttrc_man_head&#45;&gt;neomuttrc_man</title>
<path fill="none" stroke="#000000" stroke-width="1.5" d="M368.3156,-129.9137C393.6529,-123.3079 423.9426,-115.1156 451,-107 462.0465,-103.6867 473.8328,-99.9106 484.9764,-96.2276"/>
<polygon fill="#000000" stroke="#000000" stroke-width="1.5" points="486.1898,-99.5125 494.5691,-93.0289 483.9755,-92.872 486.1898,-99.5125"/>
</g>
<!-- neomuttrc_man_tail -->
<g id="node17" class="node">
<title>neomuttrc_man_tail</title>
<path fill="none" stroke="#0000ff" stroke-width="2" d="M226.3333,-65C226.3333,-65 398.6667,-65 398.6667,-65 403.3333,-65 408,-69.6667 408,-74.3333 408,-74.3333 408,-83.6667 408,-83.6667 408,-88.3333 403.3333,-93 398.6667,-93 398.6667,-93 226.3333,-93 226.3333,-93 221.6667,-93 217,-88.3333 217,-83.6667 217,-83.6667 217,-74.3333 217,-74.3333 217,-69.6667 221.6667,-65 226.3333,-65"/>
<text text-anchor="middle" x="312.5" y="-74.6" font-family="Times,serif" font-size="18.00" fill="#000000">neomuttrc.man.tail</text>
</g>
<!-- neomuttrc_man_tail&#45;&gt;neomuttrc_man -->
<g id="edge10" class="edge">
<title>neomuttrc_man_tail&#45;&gt;neomuttrc_man</title>
<path fill="none" stroke="#000000" stroke-width="1.5" d="M408.1513,-79C425.7084,-79 443.7943,-79 460.6129,-79"/>
<polygon fill="#000000" stroke="#000000" stroke-width="1.5" points="460.905,-82.5001 470.905,-79 460.905,-75.5001 460.905,-82.5001"/>
</g>
<!-- neomutt_css -->
<g id="node18" class="node">
<title>neomutt_css</title>
<path fill="none" stroke="#0000ff" stroke-width="2" d="M481.3333,-324C481.3333,-324 588.6667,-324 588.6667,-324 593.3333,-324 598,-328.6667 598,-333.3333 598,-333.3333 598,-342.6667 598,-342.6667 598,-347.3333 593.3333,-352 588.6667,-352 588.6667,-352 481.3333,-352 481.3333,-352 476.6667,-352 472,-347.3333 472,-342.6667 472,-342.6667 472,-333.3333 472,-333.3333 472,-328.6667 476.6667,-324 481.3333,-324"/>
<text text-anchor="middle" x="535" y="-333.6" font-family="Times,serif" font-size="18.00" fill="#000000">neomutt.css</text>
</g>
<!-- neomutt_css&#45;&gt;xsltproc -->
<g id="edge4" class="edge">
<title>neomutt_css&#45;&gt;xsltproc</title>
<path fill="none" stroke="#000000" stroke-width="1.5" d="M567.8354,-352.048C580.4463,-357.5337 594.9424,-363.9494 608,-370 617.8659,-374.5716 628.4637,-379.665 638.2707,-384.4556"/>
<polygon fill="#000000" stroke="#000000" stroke-width="1.5" points="636.8622,-387.6632 647.3812,-388.929 639.9475,-381.3797 636.8622,-387.6632"/>
</g>
<!-- gen_map_doc&#45;&gt;manual_xml -->
<g id="edge18" class="edge">
<title>gen_map_doc&#45;&gt;manual_xml</title>
<path fill="none" stroke="#000000" stroke-width="1.5" d="M378.6549,-403C405.2346,-403 435.9482,-403 463.0798,-403"/>
<polygon fill="#000000" stroke="#000000" stroke-width="1.5" points="463.2869,-406.5001 473.2868,-403 463.2868,-399.5001 463.2869,-406.5001"/>
</g>
<!-- makedoc_c&#45;&gt;neomuttrc -->
<g id="edge13" class="edge">
<title>makedoc_c&#45;&gt;neomuttrc</title>
<path fill="none" stroke="#000000" stroke-width="1.5" d="M372.1259,-217.8434C402.1953,-222.3031 438.7298,-227.7217 469.5711,-232.2959"/>
<polygon fill="#000000" stroke="#000000" stroke-width="1.5" points="469.3893,-235.8072 479.7946,-233.8122 470.4163,-228.8829 469.3893,-235.8072"/>
</g>
<!-- makedoc_m&#45;&gt;neomuttrc_man -->
<g id="edge9" class="edge">
<title>makedoc_m&#45;&gt;neomuttrc_man</title>
<path fill="none" stroke="#000000" stroke-width="1.5" d="M360.5053,-28.024C394.603,-37.9851 440.5702,-51.4138 476.7654,-61.9877"/>
<polygon fill="#000000" stroke="#000000" stroke-width="1.5" points="476.117,-65.4445 486.6972,-64.8891 478.0799,-58.7253 476.117,-65.4445"/>
</g>
<!-- makedoc_s&#45;&gt;manual_xml -->
<g id="edge20" class="edge">
<title>makedoc_s&#45;&gt;manual_xml</title>
<path fill="none" stroke="#000000" stroke-width="1.5" d="M361.3286,-353.0451C395.2381,-362.7988 440.5874,-375.8431 476.4418,-386.1563"/>
<polygon fill="#000000" stroke="#000000" stroke-width="1.5" points="475.7075,-389.5869 486.2853,-388.9877 477.6425,-382.8597 475.7075,-389.5869"/>
</g>
<!-- xsltproc&#45;&gt;manual_html -->
<g id="edge5" class="edge">
<title>xsltproc&#45;&gt;manual_html</title>
<path fill="none" stroke="#000000" stroke-width="1.5" d="M720.0338,-403C724.1386,-403 728.3841,-403 732.7047,-403"/>
<polygon fill="#000000" stroke="#000000" stroke-width="1.5" points="732.8915,-406.5001 742.8915,-403 732.8914,-399.5001 732.8915,-406.5001"/>
</g>
</g>
</svg>
